<?xml version="1.0" standalone="no"?> <!DOCTYPE svg PUBLIC "-//W3C//DTD SVG 20010904//EN" "http://www.w3.org/TR/2001/REC-SVG-20010904/DTD/svg10.dtd"> <svg version="1.0" xmlns="http://www.w3.org/2000/svg" width="500.000000pt" height="500.000000pt" viewBox="0 0 500.000000 500.000000" preserveAspectRatio="xMidYMid meet"> <g transform="translate(0.000000,500.000000) scale(0.100000,-0.100000)" fill="#000000" stroke="none"> <path d="M2170 4894 c-204 -24 -462 -126 -639 -252 -146 -105 -311 -282 -386 -416 -62 -110 -113 -281 -136 -456 -25 -184 -14 -596 22 -804 12 -68 6 -108 -15 -100 -8 3 -26 -7 -40 -23 -23 -24 -26 -36 -26 -98 0 -38 7 -126 16 -195 8 -69 18 -146 21 -172 3 -26 9 -45 14 -42 9 5 11 -2 13 -66 2 -43 36 -262 43 -272 2 -5 9 -8 14 -8 6 0 7 5 4 10 -7 12 -10 28 -30 150 -7 47 -16 96 -20 110 -6 24 -5 23 10 -3 23 -40 30 -27 10 19 -23 55 -38 169 -30 231 4 30 9 53 11 50 3 -3 14 -69 24 -148 18 -135 36 -245 61 -364 5 -27 12 -60 15 -73 4 -18 1 -22 -13 -20 -26 4 -74 49 -89 83 -18 41 -18 16 1 -28 17 -41 59 -77 90 -77 20 0 24 -9 40 -92 39 -204 117 -385 233 -539 39 -52 81 -105 94 -119 13 -14 45 -52 73 -84 105 -126 322 -287 383 -286 9 1 -5 10 -33 23 -27 12 -58 29 -69 39 -10 9 -33 24 -51 32 -60 29 -262 244 -381 406 -84 114 -148 236 -185 352 -21 66 -25 110 -7 68 29 -66 151 -306 157 -310 4 -3 10 -12 13 -20 10 -26 109 -162 115 -157 5 6 -11 39 -29 59 -36 39 -97 148 -82 148 4 0 23 -16 108 -92 22 -21 47 -38 55 -38 13 0 -67 79 -80 80 -15 1 -126 119 -146 155 -50 90 -118 221 -125 240 -45 132 -104 409 -134 630 -26 202 -10 681 31 872 20 93 51 204 67 241 14 33 18 69 18 151 0 99 17 244 38 331 9 37 52 124 74 150 91 110 383 151 1054 151 358 0 554 -8 674 -26 150 -24 193 -39 250 -91 77 -70 98 -137 129 -409 l9 -80 -3 110 c-5 162 -37 290 -88 357 -45 59 -119 94 -247 117 -96 18 -136 22 -315 36 -101 8 -672 9 -823 2 -78 -4 -171 -11 -205 -16 -34 -5 -89 -12 -122 -16 -96 -10 -127 -16 -170 -32 -22 -8 -48 -15 -57 -16 -9 -1 -15 -4 -12 -8 2 -4 -6 -11 -18 -15 -12 -3 -26 -10 -32 -15 -6 -5 -20 -17 -32 -27 -22 -18 -60 -84 -81 -142 -18 -49 -31 -161 -38 -329 -4 -91 -12 -152 -20 -165 -7 -12 -20 -48 -29 -81 -10 -33 -24 -77 -32 -99 -8 -21 -13 -41 -10 -43 3 -3 0 -17 -6 -32 -6 -14 -11 -43 -13 -63 -3 -59 -13 -55 -21 8 -13 104 19 503 48 594 6 19 12 41 13 50 1 8 4 22 7 30 32 85 46 130 40 130 -4 0 -2 4 3 8 14 10 35 59 35 83 0 11 7 22 15 25 8 4 15 13 15 22 0 15 40 73 70 102 8 8 27 31 42 50 28 37 167 179 239 244 43 38 214 146 232 146 5 0 22 9 38 21 16 11 33 17 39 14 5 -3 10 -2 10 3 0 5 8 12 18 15 113 36 209 59 262 63 36 3 89 10 118 15 29 6 65 8 80 5 15 -3 59 -6 97 -8 39 -1 75 -5 80 -8 6 -4 35 -12 66 -19 30 -6 73 -21 95 -32 22 -11 31 -13 20 -4 -11 8 -15 15 -10 15 6 0 20 -10 32 -23 15 -16 32 -22 52 -21 16 1 30 -1 30 -5 0 -4 23 -18 50 -30 28 -12 50 -27 50 -32 0 -6 -5 -7 -12 -3 -7 4 -8 3 -4 -5 6 -9 11 -9 22 0 11 9 14 9 14 0 0 -7 4 -10 10 -6 5 3 18 -3 30 -15 11 -11 27 -20 36 -20 8 0 13 -3 11 -7 -3 -5 7 -17 21 -27 15 -12 22 -14 17 -5 -5 8 8 -1 28 -18 21 -18 41 -33 45 -33 11 0 82 -66 82 -76 0 -5 -5 -2 -11 6 -9 13 -10 13 -6 0 2 -8 11 -14 21 -12 9 2 16 -2 16 -8 0 -5 7 -10 15 -10 8 0 15 -4 15 -9 0 -5 17 -27 38 -50 66 -71 71 -78 60 -89 -6 -6 -6 -12 3 -17 7 -5 10 -4 6 2 -4 6 0 13 8 16 10 4 12 1 8 -10 -5 -12 -2 -15 10 -10 11 4 14 2 11 -7 -3 -7 5 -26 18 -42 36 -45 48 -72 42 -91 -5 -15 -4 -16 5 -3 6 8 11 10 11 4 0 -6 10 -33 22 -60 12 -27 22 -51 23 -54 0 -3 4 -11 9 -19 7 -10 6 -12 -3 -6 -10 6 -10 2 0 -16 13 -24 18 -40 23 -69 1 -9 5 -20 8 -25 6 -10 25 -106 33 -165 2 -14 4 -27 5 -30 1 -3 1 -13 0 -24 -1 -10 2 -16 7 -13 10 6 16 -94 16 -293 1 -200 -6 -319 -17 -313 -4 3 -5 -5 -1 -17 4 -12 3 -20 -2 -17 -4 3 -7 -19 -5 -48 1 -29 -2 -56 -7 -59 -5 -3 -7 -15 -4 -25 3 -11 -4 -45 -16 -76 -14 -36 -21 -80 -21 -123 -1 -166 -78 -663 -120 -767 -25 -64 -68 -218 -64 -229 3 -8 0 -17 -5 -21 -6 -3 -9 -10 -6 -15 3 -5 1 -11 -5 -15 -14 -9 -13 18 2 33 6 6 9 15 5 18 -4 4 -13 -8 -21 -27 -12 -28 -12 -35 -1 -37 10 -2 11 -11 2 -38 -6 -18 -14 -34 -18 -34 -5 0 -6 -7 -3 -15 14 -36 -125 -249 -247 -379 -20 -23 -46 -50 -56 -61 -24 -26 -115 -109 -181 -164 -28 -25 -52 -49 -52 -55 0 -5 6 -3 13 5 6 8 34 32 60 53 83 66 215 196 285 280 37 44 72 86 77 92 6 6 30 41 54 78 24 37 45 65 46 64 2 -2 -1 -28 -6 -58 -9 -60 -34 -364 -44 -530 -7 -129 1 -152 85 -247 67 -74 74 -91 69 -157 -2 -24 0 -42 4 -39 5 3 -2 -11 -15 -31 -13 -20 -31 -39 -41 -42 -9 -3 -15 -10 -12 -15 4 -5 -1 -9 -9 -9 -9 0 -16 -5 -16 -11 0 -6 -7 -8 -16 -5 -8 3 -12 2 -9 -4 3 -6 -1 -10 -10 -10 -9 0 -13 -4 -10 -10 3 -5 1 -10 -5 -10 -6 0 -28 -12 -50 -26 -25 -17 -46 -24 -57 -20 -10 4 -14 4 -10 0 10 -10 -31 -36 -45 -28 -7 4 -8 3 -4 -4 4 -7 1 -12 -9 -12 -9 0 -27 -7 -40 -16 -14 -9 -32 -14 -40 -10 -9 3 -14 2 -11 -2 7 -12 -127 -40 -230 -48 -70 -5 -97 -3 -120 8 -41 21 -124 36 -234 44 -161 11 -311 8 -307 -6 2 -7 -49 -55 -62 -58 -11 -2 -137 19 -216 37 -142 32 -435 156 -435 184 0 6 -3 8 -6 4 -5 -5 -72 35 -109 65 -5 5 -29 22 -53 39 -23 17 -39 36 -35 41 3 6 1 8 -5 4 -6 -3 -19 7 -28 24 -10 16 -22 30 -26 30 -4 0 -5 6 -2 14 3 8 1 17 -5 21 -16 9 -13 95 4 147 12 34 31 57 79 97 35 29 69 64 75 77 15 33 16 478 1 469 -7 -4 -10 -87 -10 -225 1 -212 0 -220 -21 -249 -14 -19 -40 -37 -70 -46 -41 -14 -89 -50 -81 -61 1 -2 -5 -20 -13 -40 -9 -21 -15 -67 -15 -108 0 -69 2 -74 37 -116 30 -35 92 -87 198 -168 61 -46 240 -133 365 -176 91 -32 322 -86 366 -86 12 0 39 16 60 36 l38 37 171 -7 c194 -8 284 -20 337 -47 53 -27 139 -23 288 12 160 38 399 172 476 266 36 44 39 52 39 113 0 53 -5 74 -28 112 -25 44 -68 78 -97 78 -13 0 -44 29 -38 35 6 6 117 -29 153 -48 17 -9 41 -26 55 -39 14 -13 58 -48 98 -77 39 -29 72 -57 72 -62 0 -6 4 -8 9 -4 5 3 12 1 16 -5 6 -10 113 -86 150 -106 11 -6 80 -45 153 -87 74 -43 136 -77 138 -77 2 0 21 -11 42 -23 20 -13 82 -50 137 -83 55 -32 118 -71 139 -86 21 -15 48 -28 60 -28 28 0 -43 45 -404 252 -297 171 -389 232 -555 365 -88 71 -141 98 -237 123 -57 15 -54 -10 -33 275 28 385 43 500 80 610 19 55 44 149 56 208 19 89 25 107 38 101 56 -23 71 -26 97 -20 51 13 96 73 136 183 47 128 63 202 84 383 32 288 29 340 -19 395 -29 33 -85 43 -127 21 l-32 -16 6 28 c33 144 40 218 40 457 1 165 -4 279 -13 335 -31 196 -89 391 -149 500 -132 241 -428 490 -723 608 -168 67 -242 83 -419 87 -85 2 -171 1 -190 -1z m-310 -108 c-183 -94 -290 -159 -290 -177 0 -6 -4 -8 -8 -5 -5 3 -15 -3 -24 -12 -8 -9 -28 -29 -44 -44 -72 -65 -253 -267 -290 -323 -20 -30 -76 -160 -113 -260 -18 -49 -49 -202 -62 -310 -7 -55 -14 -94 -16 -87 -8 21 27 293 48 377 31 128 115 309 165 359 8 9 13 16 10 16 -3 0 8 14 26 30 17 17 28 30 24 30 -21 0 199 208 271 256 106 70 301 170 338 172 6 1 -10 -9 -35 -22z m1880 -1917 c0 -5 6 -9 13 -9 17 0 37 -47 44 -100 6 -54 -32 -406 -53 -493 -8 -34 -22 -74 -30 -89 -8 -16 -12 -28 -8 -28 3 0 1 -6 -5 -13 -6 -8 -8 -16 -5 -19 5 -6 -29 -83 -57 -126 -14 -22 -78 -48 -109 -43 -48 6 -62 13 -56 27 3 8 22 115 41 237 20 122 39 238 42 257 l6 35 12 -35 c21 -56 17 -100 -15 -168 -34 -73 -35 -79 -16 -79 8 0 12 6 9 13 -2 6 8 36 22 65 29 56 30 94 5 234 -19 111 9 321 43 319 9 -1 14 3 10 9 -4 6 2 8 15 5 12 -4 20 -2 17 2 -3 5 0 10 7 12 18 6 68 -3 68 -13z m-2710 -71 c0 -29 -4 -48 -8 -42 -40 45 -51 68 -41 80 6 8 20 14 30 14 16 0 19 -8 19 -52z m-17 -129 c-8 -29 -13 -23 -13 14 0 22 3 28 9 18 5 -7 6 -22 4 -32z m-24 -21 c-1 -42 -3 -48 -9 -28 -12 36 -12 80 0 80 6 0 10 -24 9 -52z m5 -113 c4 -34 3 -43 -3 -30 -9 19 -15 93 -7 84 2 -2 6 -26 10 -54z m206 -1710 c0 -2 -14 -12 -31 -21 -17 -8 -28 -11 -24 -4 4 6 17 15 29 20 27 11 26 11 26 5z m2213 -194 c37 -34 61 -114 48 -167 -9 -39 -9 -39 -10 19 -1 59 -17 103 -46 127 -9 7 -26 27 -38 44 -19 28 -20 30 -2 17 11 -8 33 -26 48 -40z"/> <path d="M3682 2757 c-23 -23 -55 -70 -72 -105 -44 -90 -36 -100 10 -13 41 77 94 141 118 141 7 0 10 -4 7 -10 -3 -5 -2 -10 3 -10 5 0 8 -10 6 -22 -2 -13 -5 -66 -7 -118 -3 -68 -2 -85 4 -60 5 19 10 50 10 68 1 17 5 32 10 32 5 0 9 5 9 11 0 5 -6 7 -12 3 -10 -6 -10 -4 0 7 15 16 16 73 2 100 -16 30 -42 23 -88 -24z"/> <path d="M3691 2635 c0 -11 6 -49 14 -85 26 -117 14 -211 -39 -306 -26 -47 -35 -77 -17 -58 6 5 24 36 41 69 17 33 29 49 25 35 -4 -18 -3 -21 3 -10 16 25 8 279 -10 330 -9 25 -16 36 -17 25z"/> <path d="M3408 3643 c2 -40 11 -85 21 -108 33 -70 79 -198 90 -250 15 -67 31 -225 31 -307 0 -41 4 -68 10 -68 7 0 9 20 5 58 -3 31 -7 98 -10 147 -8 130 -12 160 -24 183 -6 12 -11 37 -11 56 0 20 -4 36 -10 36 -5 0 -10 9 -10 19 0 11 -5 23 -10 26 -6 4 -8 11 -5 16 4 5 1 9 -4 9 -6 0 -11 6 -11 13 0 18 -28 75 -41 82 -5 4 -9 40 -9 81 0 41 -3 74 -7 74 -5 0 -7 -30 -5 -67z"/> <path d="M1210 3455 c5 -22 10 -61 10 -87 0 -26 4 -49 8 -52 20 -12 9 131 -13 160 -12 17 -13 14 -5 -21z"/> <path d="M2890 3479 c-102 -11 -189 -29 -222 -46 -16 -7 -28 -11 -28 -8 0 14 -43 -20 -61 -48 l-20 -32 7 30 c9 42 -10 20 -26 -29 -11 -35 -11 -41 6 -53 10 -7 27 -12 38 -12 19 2 19 2 -2 6 -12 2 -20 9 -17 14 4 5 1 9 -4 9 -6 0 -11 5 -11 12 0 6 3 8 6 5 4 -4 19 13 34 37 29 45 50 65 50 47 0 -5 -4 -13 -10 -16 -5 -3 -10 -11 -10 -16 0 -5 9 -1 21 10 11 10 41 24 67 31 26 7 51 15 57 18 5 3 21 7 35 9 14 1 68 9 120 16 164 23 190 16 278 -74 45 -46 59 -70 35 -63 -10 2 -9 0 4 -7 23 -12 38 -38 28 -48 -3 -3 -9 -1 -13 5 -10 16 -88 54 -109 53 -10 0 1 -7 24 -15 23 -8 72 -43 109 -77 53 -49 65 -56 59 -37 -27 90 -128 222 -206 269 -37 23 -99 26 -239 10z"/> <path d="M1430 3414 c-14 -3 -35 -7 -47 -9 -30 -7 -105 -82 -138 -139 -49 -84 -82 -201 -39 -141 49 69 116 116 193 135 53 13 204 10 294 -6 22 -4 37 -3 37 3 0 14 -246 37 -303 29 -26 -4 -76 -22 -112 -40 -36 -18 -65 -31 -65 -29 0 2 7 18 17 36 27 53 56 88 70 83 7 -3 10 1 7 8 -3 8 12 21 42 33 39 17 64 20 142 18 86 -3 184 -12 222 -19 37 -7 70 -19 70 -25 0 -3 9 -12 20 -19 11 -7 20 -8 20 -3 0 19 -49 55 -91 67 -45 14 -293 26 -339 18z"/> <path d="M1860 3362 c0 -14 15 -30 30 -34 8 -2 20 -14 27 -27 11 -21 11 -27 -3 -43 -16 -17 -16 -18 4 -18 50 0 27 96 -28 117 -17 6 -30 8 -30 5z"/> <path d="M2962 3349 c-45 -3 -85 -8 -87 -11 -3 -3 51 -4 119 -4 68 1 124 2 123 2 -13 12 -90 18 -155 13z"/> <path d="M2730 3310 c-13 -9 -13 -10 0 -9 8 1 26 5 40 9 l25 8 -25 1 c-14 0 -32 -4 -40 -9z"/> <path d="M2775 3121 c-75 -19 -166 -85 -195 -140 -7 -13 11 -1 41 29 80 79 122 95 249 95 110 0 183 -20 253 -68 16 -10 30 -17 33 -15 8 9 -69 54 -131 77 -64 25 -197 36 -250 22z"/> <path d="M1495 3078 c-96 -44 -163 -97 -179 -143 -4 -12 13 1 41 29 26 27 75 62 108 77 68 32 185 52 248 43 52 -8 119 -39 143 -65 9 -10 21 -19 26 -19 18 0 -38 49 -82 72 -37 19 -63 23 -150 26 -91 2 -112 -1 -155 -20z"/> <path d="M1192 3070 c-6 -11 -12 -29 -12 -40 0 -11 -4 -20 -10 -20 -5 0 -10 -13 -10 -28 0 -16 -3 -32 -7 -36 -27 -27 -58 -275 -49 -385 9 -99 42 -292 61 -359 17 -56 37 -70 33 -23 -1 16 -5 28 -9 25 -4 -2 -10 22 -14 53 -3 32 -10 66 -16 76 -6 10 -15 84 -21 163 -9 113 -9 170 1 261 7 64 16 123 21 132 18 34 58 201 49 201 -3 0 -10 -9 -17 -20z"/> <path d="M2790 3066 c-25 -7 -56 -18 -70 -23 -53 -22 -145 -143 -138 -180 3 -17 77 -43 118 -42 l25 1 -25 8 c-14 5 -42 11 -62 15 -21 3 -38 10 -38 16 0 39 103 159 137 159 14 0 14 -2 -1 -19 -29 -32 -31 -83 -5 -139 27 -60 34 -62 185 -62 119 0 201 24 246 72 14 15 34 28 44 28 15 0 13 5 -11 30 -15 16 -33 27 -38 23 -6 -3 -7 -2 -4 4 7 11 -37 47 -100 80 -38 21 -146 43 -198 42 -11 0 -40 -6 -65 -13z m173 -29 c-4 -6 0 -8 10 -4 10 3 17 3 17 -1 0 -4 18 -15 40 -25 46 -20 130 -93 130 -113 0 -17 -57 -46 -129 -68 -68 -20 -67 -20 -49 2 41 50 48 110 17 161 -20 34 -38 38 -21 4 5 -10 10 -37 11 -60 1 -34 -3 -43 -16 -43 -13 0 -14 -3 -5 -12 20 -20 14 -37 -20 -54 -46 -24 -142 -14 -169 17 -10 12 -19 23 -19 23 0 1 -4 16 -10 34 -8 29 -7 32 5 22 8 -7 15 -9 15 -4 0 5 9 -4 20 -21 21 -33 41 -43 82 -44 51 -2 96 76 62 108 -15 15 -16 14 -11 -7 3 -15 -3 -32 -21 -52 -29 -33 -49 -37 -78 -15 -19 15 -19 15 1 33 12 9 24 25 28 35 4 10 12 16 19 12 7 -4 5 0 -4 8 -10 8 -15 16 -13 19 3 3 -7 14 -22 24 l-28 19 40 5 c72 9 125 8 118 -3z m-143 -61 c0 -16 -7 -27 -20 -31 -25 -8 -40 1 -40 24 0 24 9 31 37 31 18 0 23 -6 23 -24z"/> <path d="M1537 3040 c-61 -19 -134 -64 -184 -113 -29 -28 -53 -55 -53 -59 0 -4 14 -8 30 -8 17 0 30 -4 30 -10 0 -15 70 -47 130 -58 75 -14 165 -14 227 -2 47 10 54 15 72 54 31 62 24 111 -18 143 -14 11 -14 11 1 9 29 -4 97 -65 118 -106 11 -22 20 -41 20 -44 0 -2 -24 -10 -52 -16 -64 -15 -100 -34 -49 -26 68 12 112 27 118 41 5 15 -31 82 -64 120 -27 31 -72 57 -85 49 -7 -5 -8 -3 -3 6 6 10 4 12 -10 6 -11 -4 -22 -2 -26 5 -9 15 -162 22 -202 9z m205 -41 c24 -17 29 -27 26 -50 -3 -16 -1 -29 2 -29 6 0 7 -27 2 -67 -1 -7 -11 -22 -22 -33 -16 -16 -33 -20 -86 -20 -36 0 -74 4 -84 10 -16 8 -40 58 -40 81 0 21 30 6 54 -26 22 -28 34 -35 61 -35 56 0 106 73 73 106 -12 12 -14 11 -14 -5 0 -11 4 -17 9 -14 5 3 1 -6 -8 -21 -19 -29 -52 -41 -84 -31 -26 8 -26 20 -1 45 26 26 25 45 -1 63 -15 11 -17 16 -7 20 8 4 7 6 -5 6 -10 1 -15 6 -12 11 12 19 105 11 137 -11z m-217 -16 c-28 -69 -25 -121 11 -171 15 -22 15 -23 -13 -16 -15 4 -51 15 -80 26 -101 37 -95 59 40 154 39 28 51 30 42 7z m80 -33 c0 -18 -6 -26 -23 -28 -27 -4 -40 22 -22 44 19 22 45 13 45 -16z"/> <path d="M3404 2949 c3 -14 8 -41 11 -60 3 -19 10 -48 15 -64 8 -25 9 -23 4 15 -10 81 -15 103 -25 119 -8 12 -9 10 -5 -10z"/> <path d="M1940 2933 c0 -4 9 -14 20 -21 13 -8 20 -24 21 -45 0 -26 2 -28 8 -12 11 26 -10 79 -32 83 -9 2 -17 0 -17 -5z"/> <path d="M955 2895 c-14 -13 -25 -30 -25 -36 0 -7 1 -10 3 -8 1 2 15 19 31 37 35 37 27 44 -9 7z"/> <path d="M2530 2833 c0 -14 43 -63 55 -63 6 0 6 3 0 8 -6 4 -21 20 -33 36 -12 16 -22 24 -22 19z"/> <path d="M1843 2800 c-13 -5 -23 -12 -23 -15 0 -4 5 -3 10 0 6 3 10 4 10 1 0 -7 -74 -51 -82 -49 -4 2 -30 -6 -58 -17 -50 -20 -155 -27 -233 -16 -59 9 -35 -11 30 -24 101 -21 235 11 351 84 23 15 40 31 37 36 -7 12 -13 12 -42 0z"/> <path d="M2699 2783 c25 -10 37 -11 45 -3 8 8 6 9 -8 4 -12 -5 -17 -4 -13 3 4 6 -7 10 -26 10 l-32 1 34 -15z"/> <path d="M3430 2725 c0 -33 5 -67 10 -75 7 -11 10 3 10 45 0 33 -5 67 -10 75 -7 11 -10 -3 -10 -45z"/> <path d="M2715 2740 c22 -35 251 -75 291 -51 16 9 13 10 -17 5 -48 -8 -183 13 -237 36 -23 11 -40 15 -37 10z"/> <path d="M2556 2511 c24 -23 69 -74 71 -81 1 -3 7 -18 13 -35 15 -38 7 -101 -15 -125 -10 -11 -33 -24 -52 -31 -45 -15 -37 -21 11 -8 68 19 98 115 60 195 -18 38 -80 104 -97 104 -6 0 -2 -8 9 -19z"/> <path d="M1910 2495 c-7 -8 -16 -13 -20 -10 -11 6 -50 -101 -50 -136 0 -40 23 -83 59 -108 24 -17 42 -21 108 -19 43 1 60 3 38 5 -72 6 -124 24 -131 46 -4 14 -8 16 -14 7 -5 -8 -14 -2 -30 19 -29 41 -20 93 25 161 33 49 40 65 15 35z"/> <path d="M1915 2459 c-11 -17 -2 -18 19 -3 17 12 17 14 4 14 -9 0 -20 -5 -23 -11z"/> <path d="M1967 2305 c-31 -30 -13 -54 25 -34 34 18 68 20 68 3 0 -13 12 -19 33 -15 5 1 28 -13 52 -30 44 -31 102 -43 141 -28 13 5 5 8 -24 8 -47 1 -81 16 -151 66 -58 42 -120 55 -144 30z"/> <path d="M2423 2313 c-13 -2 -23 -9 -23 -14 0 -5 -6 -9 -12 -9 -15 0 -78 -57 -78 -70 0 -5 12 2 26 15 15 14 35 25 45 25 11 0 28 9 38 19 20 20 63 23 79 6 4 -4 0 -5 -8 0 -11 6 -12 5 -4 -4 13 -14 44 -4 44 14 0 21 -49 29 -107 18z"/> <path d="M986 2220 c4 -47 10 -101 14 -120 7 -31 8 -28 8 25 1 33 -6 87 -13 120 l-14 60 5 -85z"/> <path d="M2062 2155 c-24 -7 -51 -20 -61 -29 -10 -9 -20 -13 -24 -10 -3 3 -23 -6 -44 -20 -20 -14 -43 -26 -49 -26 -6 0 -17 -7 -24 -15 -7 -8 -15 -13 -19 -11 -11 7 -43 -22 -36 -34 5 -8 13 -6 28 7 11 10 17 12 13 6 -11 -20 11 -15 26 5 18 26 41 31 56 13 8 -9 11 -11 7 -4 -6 13 26 51 47 56 7 1 21 10 32 20 11 10 26 15 33 13 7 -3 13 -1 13 4 0 6 9 10 20 10 11 0 20 4 20 8 0 5 7 9 15 9 8 0 15 -6 15 -12 0 -7 10 -20 23 -29 12 -9 16 -14 8 -10 -11 5 -13 3 -7 -11 5 -15 4 -16 -9 -5 -17 14 -17 14 -19 -23 -2 -24 1 -28 23 -25 20 2 27 10 33 38 6 31 3 38 -25 62 -36 32 -36 32 -95 13z"/> <path d="M2350 2145 c0 -18 27 -38 34 -26 9 14 -3 38 -19 38 -8 0 -15 -6 -15 -12z"/> <path d="M1185 2090 c8 -89 48 -279 58 -273 4 3 5 12 2 22 -7 16 -9 28 -25 141 -5 36 -16 88 -25 115 l-15 50 5 -55z"/> <path d="M2310 2099 c14 -48 14 -48 125 -64 11 -1 27 -5 35 -8 25 -9 83 -27 86 -27 12 0 1 29 -12 34 -10 4 -13 2 -8 -6 5 -8 -1 -9 -22 -4 -16 4 -32 12 -35 18 -4 6 -14 8 -22 5 -9 -3 -18 1 -21 9 -4 10 -13 13 -31 8 -14 -3 -25 -2 -25 3 0 17 -45 60 -62 60 -12 0 -14 -6 -8 -28z m40 -11 c18 -27 18 -29 2 -11 -11 12 -22 19 -26 16 -3 -4 -6 1 -6 10 0 24 6 21 30 -15z"/> <path d="M2563 2075 c0 -8 4 -12 9 -9 4 3 11 -2 14 -11 5 -13 9 -14 15 -4 4 8 1 18 -9 26 -22 16 -29 16 -29 -2z"/> <path d="M1573 2053 c-40 -44 -60 -94 -52 -128 l7 -30 1 33 c1 21 16 55 41 93 44 63 45 76 3 32z"/> <path d="M2044 2067 c-11 -20 -78 -43 -68 -24 3 7 -3 1 -14 -13 -12 -14 -19 -26 -17 -28 7 -7 85 19 85 29 0 6 5 7 10 4 6 -3 16 -3 22 2 7 4 22 7 32 8 11 0 21 6 24 13 3 10 -4 12 -26 9 -18 -3 -33 0 -35 6 -2 7 -7 4 -13 -6z"/> <path d="M2642 2037 c13 -13 32 -30 42 -38 18 -13 19 -13 8 7 -10 19 -53 54 -67 54 -3 0 4 -10 17 -23z"/> <path d="M1902 2018 c-13 -13 -4 -38 14 -38 15 0 19 35 6 44 -5 3 -14 0 -20 -6z"/> <path d="M2706 2021 c-3 -5 11 -19 32 -31 l37 -22 -29 31 c-33 35 -33 34 -40 22z"/> <path d="M1763 2009 c-12 -4 -27 -17 -33 -28 -14 -26 4 -28 22 -2 7 10 21 17 31 15 9 -1 17 2 17 6 0 15 -14 18 -37 9z"/> <path d="M2210 2008 c0 -10 42 -10 58 0 8 5 -1 8 -23 8 -19 -1 -35 -4 -35 -8z"/> <path d="M2570 2012 c0 -13 23 -32 38 -32 7 0 10 4 7 10 -9 14 -45 32 -45 22z"/> <path d="M2777 1999 c6 -6 9 -17 7 -24 -3 -6 2 -12 11 -12 18 0 18 2 5 28 -6 10 -16 19 -22 19 -9 0 -9 -3 -1 -11z"/> <path d="M1670 1978 c-76 -44 -103 -106 -88 -204 14 -98 47 -158 41 -76 -2 31 -1 33 6 12 7 -23 9 -22 15 15 4 22 9 48 11 58 2 9 0 17 -5 17 -10 0 -21 -30 -15 -40 3 -5 1 -11 -5 -15 -11 -7 -30 35 -30 68 0 41 21 97 35 97 8 0 14 6 13 13 -2 6 3 11 11 9 13 -3 61 45 61 61 0 11 -11 7 -50 -15z"/> <path d="M1833 1981 c4 -16 2 -21 -8 -17 -7 2 -16 -2 -19 -11 -4 -9 -14 -13 -26 -10 -11 3 -20 1 -20 -4 0 -5 -13 -15 -30 -24 -16 -9 -30 -12 -30 -8 0 4 -9 -3 -20 -15 -11 -12 -20 -29 -20 -39 0 -14 5 -11 18 10 9 15 24 27 34 27 9 0 37 11 62 25 25 14 52 25 60 25 9 0 16 5 16 10 0 6 6 10 14 10 8 0 18 5 22 11 5 9 -1 10 -20 5 -17 -4 -25 -3 -22 3 4 5 1 13 -5 17 -9 5 -10 0 -6 -15z"/> <path d="M2053 1985 c-71 -16 -292 -134 -293 -157 0 -10 37 3 57 20 29 26 51 39 143 84 98 48 147 53 247 25 50 -15 67 -16 85 -6 12 7 45 20 73 30 40 15 45 18 22 19 -15 0 -35 -4 -45 -9 -35 -18 -101 -33 -124 -28 -12 2 -43 11 -68 19 -36 12 -55 12 -97 3z"/> <path d="M2631 1985 c-1 -14 9 -24 31 -33 17 -6 34 -9 37 -7 2 3 -9 11 -27 17 -17 7 -33 19 -36 28 -2 10 -4 8 -5 -5z"/> <path d="M2891 1930 c20 -25 39 -52 42 -60 3 -9 6 -4 6 12 1 20 -10 35 -41 60 l-43 33 36 -45z"/> <path d="M2610 1904 c0 -7 52 -25 57 -20 2 2 -10 8 -26 14 -17 6 -31 9 -31 6z"/> <path d="M2782 1835 c-53 -30 -152 -44 -277 -37 -57 2 -124 -2 -182 -12 -69 -12 -104 -13 -144 -6 -28 6 -117 10 -198 10 -152 0 -208 9 -253 41 -14 11 -28 19 -31 19 -11 0 -15 -41 -4 -44 7 -2 30 -9 51 -16 34 -11 350 -31 496 -32 73 0 370 21 440 31 101 15 160 36 160 57 0 19 -8 18 -58 -11z"/> <path d="M2924 1763 c0 -27 -4 -59 -9 -73 -5 -17 -5 -22 3 -15 12 11 33 116 25 127 -11 19 -18 4 -19 -39z"/> <path d="M1825 1717 c10 -15 20 -25 23 -22 3 3 -5 16 -17 28 l-23 22 17 -28z"/> <path d="M2030 1554 c52 -18 309 -28 350 -13 17 6 -3 7 -60 4 -75 -4 -189 4 -300 20 -32 4 -31 3 10 -11z"/> <path d="M1613 1528 c-4 -7 -8 -58 -10 -113 -1 -59 1 -86 5 -65 4 19 7 58 7 85 0 28 5 56 12 63 15 16 17 42 4 42 -6 0 -13 -6 -18 -12z"/> <path d="M1650 1486 c0 -14 5 -26 10 -26 6 0 10 9 10 19 0 11 -4 23 -10 26 -6 4 -10 -5 -10 -19z"/> <path d="M2060 1503 c1 -10 121 -105 127 -100 7 8 -9 37 -22 37 -7 0 -18 6 -24 14 -9 10 -7 17 5 27 15 12 14 14 -7 20 -34 10 -79 10 -79 2z"/> <path d="M2356 1493 c5 -5 12 -12 15 -16 3 -5 9 -2 12 7 5 12 0 16 -15 16 -12 0 -17 -3 -12 -7z"/> <path d="M1674 1449 c-3 -6 -1 -16 5 -22 8 -8 11 -5 11 11 0 24 -5 28 -16 11z"/> <path d="M2357 1437 c-15 -12 -27 -26 -27 -31 0 -4 7 0 15 8 9 9 24 20 33 25 9 5 14 12 11 15 -3 3 -18 -4 -32 -17z"/> <path d="M2200 1393 c0 -16 85 -18 95 -2 11 18 -2 22 -34 11 -17 -6 -31 -7 -31 -3 0 4 -7 8 -15 8 -8 0 -15 -6 -15 -14z"/> <path d="M3080 1364 c-59 -46 -60 -48 -27 -33 15 7 27 16 27 21 0 4 7 8 15 8 8 0 19 9 25 20 14 26 13 25 -40 -16z"/> <path d="M2187 1243 c-4 -3 -7 -16 -6 -27 0 -19 1 -19 10 3 10 24 8 36 -4 24z"/> <path d="M1375 1158 c-3 -29 -10 -109 -16 -178 -5 -69 -12 -143 -16 -165 -3 -22 -2 -36 3 -32 4 4 9 14 10 21 1 8 7 36 12 63 12 55 28 343 19 343 -3 0 -8 -24 -12 -52z"/> <path d="M1540 1193 c1 -10 60 -89 60 -80 0 9 -51 87 -56 87 -2 0 -4 -3 -4 -7z"/> <path d="M2025 1160 c-4 -12 -5 -24 -2 -27 3 -2 8 5 12 17 4 12 5 24 2 27 -3 2 -8 -5 -12 -17z"/> <path d="M1985 1160 c-11 -5 -15 -9 -8 -9 6 -1 13 -9 15 -18 3 -13 6 -10 10 10 3 15 5 27 4 26 0 0 -10 -4 -21 -9z"/> <path d="M2745 879 c-16 -10 -25 -19 -19 -19 7 0 22 9 35 20 30 24 23 24 -16 -1z"/> <path d="M1109 867 c-24 -13 -73 -40 -109 -60 -36 -20 -162 -68 -280 -108 -241 -80 -390 -133 -435 -153 -16 -8 -66 -29 -110 -46 -94 -37 -175 -80 -175 -92 0 -5 12 -2 28 6 112 57 408 171 690 265 256 86 277 94 357 147 29 20 77 39 115 48 l65 14 -51 1 c-35 1 -64 -6 -95 -22z"/> <path d="M1260 789 c-80 -63 -85 -73 -22 -39 l37 20 12 -27 c12 -27 12 -26 13 20 0 52 -4 55 -40 26z"/> <path d="M1330 756 c0 -8 -3 -21 -6 -30 -3 -9 -1 -16 5 -16 6 0 11 8 11 18 0 10 5 23 12 30 9 9 8 12 -5 12 -9 0 -17 -6 -17 -14z"/> <path d="M3539 551 c19 -17 37 -31 39 -31 10 0 -33 42 -53 52 -11 6 -5 -4 14 -21z"/> <path d="M2146 68 c9 -84 14 -86 14 -5 0 40 -4 67 -10 67 -7 0 -9 -21 -4 -62z"/> <path d="M2470 97 c0 -9 102 -67 118 -66 11 0 9 4 -8 10 -13 6 -27 13 -30 17 -3 4 -18 14 -35 22 -16 8 -33 16 -37 18 -5 2 -8 2 -8 -1z"/> <path d="M2662 30 c0 -19 2 -27 5 -17 2 9 2 25 0 35 -3 9 -5 1 -5 -18z"/> </g> </svg>