<?xml version="1.0" standalone="no"?>
<!DOCTYPE svg PUBLIC "-//W3C//DTD SVG 20010904//EN"
 "http://www.w3.org/TR/2001/REC-SVG-20010904/DTD/svg10.dtd">
<svg version="1.0" xmlns="http://www.w3.org/2000/svg"
 width="1500.000000pt" height="1500.000000pt" viewBox="0 0 1500.000000 1500.000000"
 preserveAspectRatio="xMidYMid meet">
<g transform="translate(0.000000,1500.000000) scale(0.100000,-0.100000)"
fill="#000000" stroke="none">
<path d="M6615 14678 c-27 -5 -111 -13 -185 -17 -74 -5 -148 -13 -165 -19 -73
-27 -137 -42 -174 -42 l-40 0 -78 -30 c-42 -16 -92 -30 -109 -30 -18 0 -45 -6
-61 -14 -56 -28 -104 -46 -122 -46 -10 0 -48 -13 -84 -30 -37 -16 -76 -30 -88
-30 -13 0 -30 -6 -38 -13 -9 -7 -36 -21 -61 -31 -53 -21 -169 -74 -190 -87 -8
-5 -22 -12 -30 -15 -51 -19 -227 -112 -310 -163 -148 -92 -194 -123 -260 -172
-43 -32 -101 -74 -129 -93 -28 -20 -59 -42 -68 -50 -266 -215 -359 -306 -599
-581 -188 -217 -255 -307 -361 -485 -66 -112 -173 -327 -173 -349 0 -9 -4 -21
-9 -27 -10 -10 -67 -166 -81 -224 -18 -71 -39 -140 -47 -153 -4 -6 -10 -32
-14 -57 -4 -25 -18 -90 -33 -145 -14 -55 -26 -110 -26 -122 0 -12 -4 -24 -9
-27 -5 -3 -12 -40 -16 -83 -4 -42 -13 -101 -21 -130 -8 -30 -14 -86 -14 -126
0 -40 -4 -88 -9 -107 -6 -19 -20 -177 -32 -350 l-21 -315 5 -205 c8 -299 25
-607 42 -752 8 -70 15 -158 15 -196 0 -38 5 -94 11 -123 6 -30 14 -99 19 -154
12 -139 28 -234 46 -273 l15 -33 -7 -22 c-4 -12 -6 -42 -5 -66 l2 -44 -13 -8
c-7 -5 -24 -9 -36 -9 -30 0 -142 -70 -142 -89 0 -7 -17 -29 -37 -50 l-37 -36
-4 -110 c-4 -120 10 -375 33 -580 8 -71 19 -193 25 -269 6 -77 15 -147 20
-155 4 -9 11 -43 15 -76 4 -33 13 -92 21 -132 8 -40 14 -92 14 -116 l0 -45 14
-11 c15 -12 16 -17 40 -176 8 -55 19 -113 25 -130 14 -40 41 -196 41 -233 0
-17 7 -57 15 -90 l16 -60 -3 -99 c-4 -116 -18 -129 -44 -39 -5 16 -14 31 -20
33 l-12 4 -6 -37 -7 -36 15 -17 c9 -10 16 -27 16 -38 0 -11 7 -26 15 -33 8 -7
15 -20 15 -29 0 -9 12 -34 26 -56 65 -98 126 -138 226 -150 72 -8 71 -7 96
-150 12 -66 26 -138 31 -160 5 -22 17 -76 26 -120 9 -44 22 -102 30 -130 8
-27 21 -79 30 -115 9 -36 23 -80 31 -98 8 -18 14 -41 14 -52 0 -11 7 -36 16
-57 30 -69 42 -97 64 -153 34 -85 122 -274 150 -320 51 -86 68 -124 83 -178
l17 -63 35 -37 c38 -42 51 -60 162 -222 43 -63 85 -122 93 -131 48 -50 87 -96
96 -111 9 -16 46 -60 145 -171 26 -29 77 -90 114 -137 73 -92 119 -141 325
-346 175 -175 205 -203 265 -250 28 -21 54 -45 58 -51 4 -7 12 -13 18 -13 5 0
33 -19 63 -43 53 -42 159 -111 206 -134 79 -37 138 -63 147 -63 5 0 24 -11 43
-25 l34 -25 41 0 c22 0 49 -6 60 -14 26 -17 108 -43 165 -51 25 -4 61 -14 80
-23 l35 -16 89 -3 89 -3 30 -15 c28 -14 125 -28 252 -36 120 -8 491 -3 609 9
l130 12 22 15 22 14 78 -1 79 0 60 16 c32 9 67 16 76 16 9 0 22 7 29 15 7 8
25 15 41 15 34 0 214 57 248 79 29 19 128 61 159 68 12 3 22 9 22 14 0 4 11
14 24 21 41 23 100 58 131 78 17 11 45 27 63 35 17 8 32 19 32 24 0 4 19 21
43 37 55 37 260 205 354 291 24 21 63 56 88 78 25 22 101 96 168 165 67 69
149 152 182 185 54 53 102 106 211 235 16 19 70 78 119 131 102 110 99 106
226 294 52 77 103 148 114 158 l20 19 3 -17 c2 -9 -1 -22 -7 -28 -6 -6 -11
-26 -11 -44 0 -18 -4 -33 -10 -33 -5 0 -10 -17 -10 -37 l0 -37 -26 -37 -25
-37 -5 -63 c-3 -35 -5 -97 -5 -137 l1 -73 -19 6 -19 6 -8 -12 -7 -12 16 -12
17 -12 0 -104 c0 -57 -5 -156 -12 -219 -6 -63 -12 -133 -12 -155 -1 -22 -5
-56 -9 -75 -12 -56 -29 -288 -28 -380 1 -47 -1 -100 -4 -119 l-6 -34 -17 17
-17 16 -2 115 c-1 64 -7 123 -12 133 -5 9 -7 30 -4 45 l5 28 -15 17 -15 17 6
65 c5 61 6 106 5 265 -2 164 -9 237 -27 280 l-17 40 3 45 3 45 -15 0 -15 0 3
-50 3 -50 -20 -24 c-12 -13 -21 -31 -21 -38 0 -8 -9 -27 -21 -41 l-21 -27 16
-3 c23 -5 20 -21 -10 -49 l-26 -24 6 -24 6 -24 -10 -6 -10 -6 0 -68 c0 -37 -3
-71 -6 -74 -10 -9 -12 -190 -3 -202 4 -6 1 -78 -6 -160 -18 -191 -10 -390 17
-439 l12 -21 1 -98 0 -99 28 -23 c15 -13 27 -33 27 -44 0 -12 9 -26 20 -33 11
-7 20 -19 20 -27 0 -27 24 -81 36 -81 l11 0 7 53 c4 28 10 90 15 137 5 47 15
135 21 195 7 61 12 129 12 151 l-1 42 13 12 14 11 5 -18 c2 -10 3 -47 1 -83
-7 -106 -4 -142 10 -190 8 -25 20 -64 27 -87 l12 -41 48 -48 48 -48 6 -45 c7
-52 30 -130 51 -178 8 -17 14 -41 14 -52 0 -12 7 -33 16 -46 l16 -25 -6 -16
-7 -17 25 -47 25 -47 -2 -46 -2 -45 21 -24 c12 -13 25 -33 28 -45 l7 -21 -14
-13 -14 -13 5 -43 5 -43 -17 0 -16 0 0 -19 c0 -10 -7 -24 -15 -31 -8 -7 -15
-21 -15 -31 l0 -19 -15 0 c-8 0 -22 -11 -31 -25 -9 -13 -38 -47 -64 -74 -27
-27 -51 -59 -55 -70 l-6 -21 -20 0 c-31 0 -80 -32 -142 -92 l-57 -56 -11 20
-10 19 -22 -15 c-12 -9 -36 -22 -54 -30 -17 -8 -42 -28 -55 -46 l-23 -32 -37
6 -37 6 -20 -29 -21 -29 -35 0 c-20 0 -46 -7 -60 -16 -13 -9 -31 -16 -40 -16
-31 0 -118 -33 -137 -52 -24 -24 -61 -38 -99 -38 -17 0 -43 -7 -59 -15 l-30
-16 0 -20 0 -20 -27 14 c-16 8 -45 17 -65 21 l-38 7 0 -31 0 -30 -44 0 c-25 0
-48 5 -52 11 l-7 12 -60 -7 c-33 -3 -68 -12 -76 -20 -9 -7 -23 -14 -31 -14 -8
-1 -35 -6 -60 -13 -58 -15 -83 -15 -215 0 -104 12 -128 19 -209 57 l-35 17
-21 -6 -22 -6 -38 20 c-20 11 -46 22 -56 24 -111 26 -141 38 -157 63 -10 15
-42 16 -66 0 l-19 -11 -58 12 -59 11 -11 -15 c-6 -8 -14 -12 -17 -9 -8 8 -39
13 -151 25 -49 5 -95 14 -101 19 -6 5 -29 10 -51 9 -106 -1 -280 7 -291 14
l-13 8 -18 -10 c-10 -5 -57 -11 -103 -13 l-84 -3 -35 -17 c-19 -10 -43 -18
-55 -18 -11 0 -36 -6 -57 -13 l-36 -13 -35 -42 c-19 -23 -37 -47 -40 -54 l-4
-13 -16 13 -16 13 -33 -18 c-45 -24 -93 -40 -155 -53 l-52 -11 -29 15 -29 15
-12 -12 -11 -11 -23 13 -22 14 -85 6 -85 6 0 20 0 20 -60 6 c-33 3 -74 13 -92
22 l-32 17 -65 0 c-36 0 -67 4 -70 9 -3 5 -31 12 -61 16 l-56 7 -17 18 -18 19
-69 7 -70 7 -25 17 c-28 20 -100 51 -100 44 0 -3 -9 0 -20 6 -11 6 -20 17 -20
25 l0 14 -33 -6 -33 -5 -13 16 c-7 9 -19 16 -27 16 -7 0 -18 9 -24 19 l-10 19
-40 7 c-22 4 -41 11 -41 16 -1 5 -2 15 -3 22 l-1 12 -40 3 c-22 2 -45 7 -50
12 -6 5 -20 7 -32 4 l-21 -6 -28 18 c-16 10 -33 24 -37 31 -4 7 -14 13 -22 13
-7 0 -15 10 -17 22 l-3 23 -52 -3 -53 -4 0 16 0 16 26 0 25 0 -6 10 c-3 6 -21
10 -40 10 l-33 0 -29 23 c-15 13 -40 27 -54 30 -25 6 -61 34 -122 93 -18 18
-46 35 -64 38 l-31 7 -7 -10 c-10 -18 -25 -12 -25 9 0 11 5 20 11 20 l10 0 -3
22 -3 23 -25 5 c-14 3 -47 16 -73 28 -27 12 -52 22 -56 22 -4 0 -17 14 -30 31
-13 17 -36 35 -52 41 -34 12 -38 33 -8 41 l21 6 -7 10 c-8 14 -35 14 -35 1 0
-5 -9 -10 -21 -10 l-21 0 6 23 5 23 -34 27 c-19 15 -43 27 -54 27 -11 0 -31
10 -45 23 -13 12 -42 39 -64 60 -22 20 -44 37 -50 37 -13 0 -23 26 -16 44 3 8
0 25 -7 37 -22 43 -28 91 -19 176 10 92 16 104 71 139 l36 23 70 6 70 7 7 -26
6 -26 24 0 24 0 7 -30 7 -30 14 0 c8 0 23 9 34 20 l21 21 11 145 11 145 -11
11 -12 12 -37 -31 c-21 -16 -54 -38 -73 -48 -48 -25 -92 -57 -108 -78 -7 -9
-28 -24 -45 -33 -18 -8 -46 -32 -63 -51 l-31 -36 -13 8 -12 8 5 42 c6 58 33
93 141 182 249 207 286 251 308 369 l13 69 0 595 c0 557 -4 670 -24 670 -4 0
-13 -24 -20 -54 l-12 -53 2 -604 1 -604 -11 -29 c-6 -16 -23 -37 -37 -48 -14
-11 -36 -38 -49 -59 -29 -45 -101 -97 -147 -105 -35 -6 -64 -17 -111 -40 -16
-8 -37 -14 -46 -14 -61 0 -164 -162 -199 -311 l-17 -74 0 -200 1 -200 37 -55
c93 -135 586 -570 647 -570 4 0 21 -13 38 -30 18 -16 37 -30 42 -30 6 0 23 -8
38 -19 88 -61 153 -101 163 -101 6 0 24 -11 41 -25 16 -14 42 -28 56 -31 15
-4 34 -12 42 -19 8 -7 60 -34 115 -60 55 -26 107 -52 115 -56 8 -5 31 -16 50
-25 19 -9 58 -26 85 -39 28 -12 68 -29 90 -36 22 -7 45 -17 51 -21 13 -9 138
-52 269 -93 44 -14 89 -29 100 -34 11 -5 54 -17 95 -26 41 -9 91 -22 110 -29
19 -8 78 -21 130 -31 52 -10 109 -23 125 -30 17 -7 62 -16 100 -20 82 -8 213
-32 227 -41 17 -11 161 -24 189 -18 l27 5 44 57 c24 31 58 64 74 72 16 8 46
29 67 47 l37 33 236 0 236 0 102 -14 c55 -8 182 -17 281 -21 226 -7 379 -22
428 -41 20 -8 51 -14 68 -14 30 0 82 -21 148 -61 19 -11 60 -30 90 -41 l55
-21 159 7 c88 4 182 11 211 17 28 5 74 14 101 19 28 6 83 14 124 19 40 5 110
21 155 34 44 14 99 30 121 36 206 51 702 294 973 474 114 77 263 210 351 315
l59 70 21 90 21 89 0 72 0 71 -20 57 c-11 32 -20 67 -20 79 0 12 -11 37 -24
57 -13 19 -27 49 -31 66 -4 17 -17 44 -29 59 -13 15 -26 37 -30 49 -4 12 -16
25 -27 28 -10 4 -19 10 -19 15 0 14 -141 78 -184 84 l-39 5 -44 46 c-24 25
-41 50 -38 55 8 13 48 13 60 1 6 -5 51 -21 100 -36 50 -15 122 -39 160 -55 39
-15 77 -31 85 -34 8 -4 29 -15 45 -26 17 -11 37 -23 46 -27 24 -12 78 -54 115
-90 18 -18 40 -33 49 -33 l16 0 -6 -20 -6 -20 27 -10 c25 -10 63 -37 109 -78
11 -10 32 -24 47 -31 39 -20 118 -91 118 -107 0 -8 8 -14 19 -14 10 0 24 -7
31 -15 7 -8 19 -15 26 -15 8 0 14 -7 14 -15 l0 -15 20 0 20 0 0 -15 c0 -8 7
-15 15 -15 l15 0 0 -18 c0 -10 -6 -24 -12 -31 l-13 -13 39 8 39 7 -7 -18 -7
-18 22 -24 c25 -25 49 -29 67 -11 l12 12 12 -12 12 -12 -22 0 c-26 0 -29 -18
-4 -27 9 -4 21 -13 25 -20 l8 -14 34 7 33 6 11 -21 c7 -12 18 -21 26 -21 l14
0 3 -27 3 -28 23 -3 22 -3 0 10 c0 18 16 13 48 -14 17 -14 37 -25 46 -25 8 0
20 -9 26 -20 6 -11 20 -20 30 -20 27 0 25 -19 -2 -30 l-23 -9 30 -2 c17 -1 39
-3 50 -3 11 -1 39 -14 62 -29 24 -15 49 -27 58 -27 8 0 15 -4 15 -10 0 -5 8
-10 18 -10 9 0 23 -9 30 -20 7 -11 20 -20 30 -21 9 0 31 -9 47 -19 17 -10 50
-29 75 -41 57 -28 55 -26 40 -44 l-12 -15 17 -6 c9 -4 21 -2 28 5 6 6 19 11
29 11 l18 0 0 -15 c0 -8 -8 -15 -17 -15 l-17 0 12 -12 11 -11 15 12 14 12 7
-11 c3 -5 3 -14 0 -20 l-6 -10 40 0 40 0 25 -25 c14 -14 34 -25 45 -25 26 0
35 -16 14 -24 l-16 -7 10 -10 11 -11 22 12 c12 6 29 9 37 5 l16 -6 -11 -11
c-7 -7 -12 -22 -12 -35 l0 -23 -18 0 c-22 0 -148 64 -177 90 -11 10 -39 27
-62 39 -23 11 -44 25 -47 30 -4 5 -20 12 -36 16 -17 4 -35 15 -40 26 l-10 18
-30 -6 -30 -6 0 16 c0 8 9 17 20 20 11 3 20 10 20 16 0 6 -9 11 -20 11 l-20 0
0 -15 0 -15 -22 0 -23 1 -35 34 c-19 19 -41 35 -50 35 -9 0 -27 11 -40 25 -13
14 -38 27 -56 31 -18 3 -40 15 -50 25 -9 10 -22 19 -27 19 -16 0 -97 43 -97
52 0 4 -6 8 -14 8 -7 0 -25 9 -39 20 -29 23 -47 26 -47 6 0 -7 10 -16 23 -20
l22 -6 -24 -19 -24 -19 19 -6 c11 -3 28 -21 38 -40 10 -19 25 -37 32 -40 8 -3
14 -12 14 -20 0 -8 13 -24 29 -36 l30 -20 6 10 c3 5 15 10 26 10 l19 0 0 -25
0 -26 34 6 34 7 20 -11 c11 -6 22 -21 24 -33 l3 -22 32 -8 33 -9 11 -44 11
-44 35 -21 34 -20 39 0 38 0 5 13 4 12 22 -20 c12 -11 34 -31 47 -45 l26 -25
14 20 c8 10 14 25 14 32 0 18 29 16 37 -3 3 -8 0 -27 -6 -41 l-12 -25 13 -15
12 -15 28 6 27 5 8 -13 c4 -8 19 -16 33 -18 l25 -3 3 -20 c7 -34 23 -45 66
-45 67 -1 126 -16 150 -39 l22 -21 50 -1 49 -1 -30 -7 -30 -6 -3 -18 -3 -17
37 0 37 0 12 16 12 17 26 -7 c36 -9 34 -25 -3 -32 -16 -4 -27 -10 -24 -15 7
-12 54 -11 54 1 0 6 10 10 21 10 l21 0 -5 -19 -5 -20 29 -12 29 -12 36 6 c57
10 54 36 -3 37 l-23 0 -6 24 -6 25 -29 10 c-16 5 -29 14 -29 20 0 5 -13 12
-29 16 -16 3 -37 15 -46 25 l-17 19 28 6 c16 4 34 8 41 10 l12 4 -5 -12 c-6
-17 32 -57 54 -57 10 0 24 -6 30 -12 l13 -13 8 14 9 14 16 -6 c20 -8 21 -26 1
-33 -8 -4 -15 -11 -15 -18 l0 -12 40 4 40 4 0 -26 0 -26 20 0 c10 0 24 -9 30
-20 6 -11 20 -24 31 -30 l20 -11 15 12 14 12 23 -19 c12 -11 24 -22 27 -26 3
-4 18 -11 33 -17 30 -12 36 -37 10 -44 -10 -2 -7 -3 7 -1 l25 2 47 -25 47 -26
3 -21 c2 -11 11 -22 21 -24 l17 -3 0 26 0 27 12 -4 c6 -2 17 -25 25 -51 l14
-47 13 0 c7 0 21 -9 30 -19 l18 -20 154 0 c85 0 154 1 154 3 0 2 -21 17 -46
33 -26 15 -58 36 -73 46 -14 9 -37 23 -51 30 -29 15 -127 77 -187 118 -23 16
-45 29 -51 29 -5 0 -28 14 -50 30 -23 17 -44 30 -47 30 -5 0 -186 105 -225
130 -8 6 -26 15 -40 21 -14 6 -38 20 -55 33 -16 12 -48 31 -70 43 -70 36 -154
82 -193 106 -20 13 -44 27 -52 30 -8 4 -33 18 -55 30 -22 13 -65 37 -95 54
-30 17 -80 45 -110 63 -30 18 -82 48 -115 65 -117 63 -130 70 -135 76 -3 3
-43 28 -90 54 -130 73 -437 260 -510 310 -36 25 -74 51 -84 58 -31 20 -346
256 -361 269 -7 7 -26 23 -42 35 -16 12 -43 34 -59 48 -34 30 -28 25 -119 93
-38 28 -74 55 -80 60 -146 118 -288 208 -350 225 -11 3 -51 17 -89 31 -38 14
-83 26 -100 26 -17 0 -48 6 -71 14 -22 8 -66 22 -98 31 l-58 17 -10 26 -10 25
11 181 c6 100 15 255 21 346 5 91 13 206 18 255 5 50 10 135 11 190 0 55 5
132 10 170 6 39 15 115 20 170 6 55 14 138 19 185 6 47 10 119 10 160 1 41 7
111 15 155 14 78 32 248 42 410 3 44 9 84 14 90 5 6 18 37 30 70 11 33 25 68
31 77 11 21 37 90 49 133 5 17 20 64 34 105 14 41 26 82 26 92 0 9 6 32 14 50
13 31 26 85 45 188 5 25 13 59 19 75 15 43 42 194 42 233 0 18 5 43 12 55 7
12 15 45 18 72 l5 50 22 3 23 3 32 -24 c18 -14 55 -34 82 -46 l49 -21 66 0 66
0 64 32 64 33 61 63 c34 35 63 68 66 75 3 7 17 31 33 54 15 24 27 47 27 52 0
5 14 36 30 69 17 34 30 68 30 77 0 9 6 29 14 43 28 54 46 103 46 123 0 12 6
33 14 47 29 56 46 104 46 127 0 13 6 36 14 52 21 42 46 128 46 154 0 13 6 44
14 69 24 75 39 160 46 260 3 52 12 118 18 145 6 28 16 113 23 190 22 272 27
310 37 355 18 76 34 237 39 410 l5 165 -21 75 c-25 95 -44 147 -59 162 -7 7
-12 17 -12 24 0 17 -111 114 -130 114 -9 0 -25 7 -36 15 l-19 14 -81 1 -82 0
-12 -15 c-7 -8 -22 -15 -34 -15 -12 0 -38 -11 -59 -25 -45 -31 -57 -26 -57 25
l0 38 30 73 30 74 0 54 c0 30 6 77 14 105 23 80 37 189 46 346 4 80 14 181 21
225 l13 80 -1 460 0 460 -16 97 c-10 54 -17 128 -17 165 0 63 -15 175 -41 298
-6 28 -14 86 -19 130 -8 82 -29 178 -49 228 -6 16 -11 45 -11 65 0 33 -11 78
-42 167 -6 17 -14 53 -18 80 -4 28 -18 75 -30 105 -12 30 -24 69 -27 85 -2 17
-11 44 -18 60 -37 83 -45 105 -45 133 0 16 -7 35 -15 42 -8 7 -15 18 -15 25 0
8 -6 26 -14 42 -7 15 -20 44 -29 63 -34 78 -110 226 -123 241 -8 8 -14 19 -14
23 0 5 -13 28 -30 53 -16 24 -30 48 -30 52 0 5 -20 36 -45 70 -25 34 -45 65
-45 71 0 5 -6 13 -13 17 -6 4 -36 40 -65 78 -29 39 -70 88 -90 110 -21 22 -62
69 -92 105 -63 75 -153 165 -264 265 -43 39 -92 84 -110 100 -86 80 -134 121
-162 140 -17 11 -47 33 -65 48 -134 111 -411 299 -563 381 -12 6 -40 24 -63
39 -24 15 -49 27 -57 27 -8 0 -18 4 -21 10 -3 5 -30 21 -58 35 -29 14 -59 29
-67 34 -66 35 -142 71 -151 71 -5 0 -36 13 -69 29 -32 16 -72 32 -89 36 -17 3
-33 11 -36 16 -4 5 -14 9 -24 9 -10 0 -24 6 -30 14 -6 7 -28 16 -49 18 -21 3
-63 17 -93 31 -30 14 -70 27 -89 30 -35 4 -75 17 -138 43 -18 8 -49 14 -70 14
-20 0 -57 6 -82 14 -25 8 -68 21 -96 30 l-52 16 -73 0 c-41 0 -105 7 -144 15
l-70 15 -300 -1 c-165 -1 -322 -6 -350 -11z m523 -311 l123 -4 11 -11 c7 -7
22 -12 34 -12 13 0 25 -4 28 -8 3 -5 34 -8 68 -6 l63 3 56 -29 56 -29 22 16
22 15 32 -5 c61 -10 92 -20 102 -32 12 -15 58 -26 101 -25 17 0 44 -6 60 -15
16 -8 36 -15 45 -15 9 0 24 -9 33 -19 9 -10 29 -21 44 -24 93 -18 176 -54 178
-77 2 -31 4 -33 22 -17 l18 16 29 -19 c17 -11 44 -20 60 -20 l30 -1 -23 -16
-24 -16 23 -13 23 -12 19 12 20 11 4 -13 c3 -7 16 -26 30 -43 l26 -30 27 6 27
6 13 -16 c7 -8 21 -15 32 -15 10 0 21 -7 24 -15 8 -21 24 -19 24 3 0 10 6 26
13 36 l13 18 12 -27 12 -26 19 6 20 6 8 -15 c11 -19 138 -86 163 -86 l20 0 0
-19 0 -19 33 -13 c17 -7 47 -25 65 -41 19 -16 50 -39 71 -52 l38 -24 9 -33 9
-32 49 -14 49 -15 56 -47 c31 -27 64 -51 73 -54 9 -3 35 -31 58 -61 22 -31 46
-56 53 -56 20 0 124 -112 134 -145 l10 -30 24 -3 c31 -5 59 -30 59 -54 l0 -18
16 0 c8 0 29 -15 47 -34 18 -19 41 -36 52 -38 11 -2 21 -12 23 -22 2 -10 19
-32 38 -48 l34 -30 0 -23 0 -23 17 -6 16 -7 -10 -10 -10 -10 -29 15 -29 15
-10 -10 -10 -10 18 -10 c24 -14 21 -24 -8 -37 -32 -15 -55 -15 -55 -2 0 6 9
10 21 10 11 0 19 5 17 11 -4 12 -6 12 -52 3 l-35 -6 -23 16 c-12 9 -35 16 -51
16 l-28 0 6 20 6 19 -25 7 c-14 3 -30 12 -37 20 -6 8 -22 14 -36 14 -13 0 -48
11 -76 24 -29 14 -68 28 -88 31 l-36 7 -6 -16 -6 -16 -30 0 c-16 0 -36 3 -45
6 -28 11 -6 24 40 24 l46 0 -4 13 c-5 14 -59 21 -94 13 l-24 -6 0 -20 c0 -24
-18 -26 -34 -4 l-12 15 -59 5 c-33 2 -96 8 -140 13 -44 5 -110 10 -147 10
l-67 1 -11 20 -10 19 -49 -6 c-28 -3 -58 -2 -68 2 l-18 7 25 11 25 10 -60 8
c-33 4 -85 4 -115 0 -64 -9 -136 -5 -167 11 l-23 11 -25 -13 -24 -13 -15 12
-15 12 -44 -6 -45 -7 -6 11 c-4 6 -24 11 -45 11 l-39 0 -12 15 -12 15 -39 0
c-21 0 -41 -5 -45 -11 l-6 -11 -11 11 -11 11 -61 0 c-34 0 -65 4 -71 10 l-9 9
-65 -9 c-95 -14 -158 -12 -195 6 l-34 16 -30 -18 -31 -18 -35 12 -34 13 -21
-11 -22 -12 -13 19 -14 18 -19 -12 -19 -12 -12 12 -11 11 -19 -11 -18 -12 -9
8 c-5 5 -25 11 -45 14 l-37 5 -9 -9 c-6 -6 -50 -12 -99 -14 l-89 -5 -52 14
-51 14 -41 -11 -42 -11 -19 12 -19 12 -26 -10 c-15 -6 -37 -7 -50 -4 -12 3
-25 2 -28 -3 -3 -4 -36 -7 -74 -5 -37 2 -108 2 -156 2 l-89 -2 -11 15 c-7 8
-29 18 -50 21 l-37 7 -6 -16 -6 -15 -32 0 c-18 0 -37 5 -43 11 l-11 11 -20
-11 -20 -10 -136 -2 -137 -2 -7 -13 -7 -13 -155 -7 -155 -6 -10 -13 c-13 -15
-94 -26 -115 -15 l-17 9 -84 -17 c-46 -10 -90 -21 -96 -25 -7 -4 -34 -8 -60
-8 -27 1 -67 -2 -91 -5 l-42 -6 -15 12 -14 12 -128 -8 c-70 -4 -150 -7 -177
-6 l-50 2 -16 15 c-9 8 -26 15 -37 15 -33 0 -93 29 -93 45 0 8 11 26 25 41 14
15 25 31 25 36 0 5 9 7 19 3 l19 -6 39 39 c53 53 93 104 93 118 0 7 18 31 39
55 l40 42 31 -6 31 -7 6 18 c3 9 10 29 17 45 l11 27 50 25 c27 13 64 37 81 52
37 33 61 50 90 62 l21 9 6 31 7 31 14 0 c8 0 27 11 42 25 30 28 66 40 89 31
l15 -5 33 29 c19 16 54 38 79 49 25 11 49 24 53 31 l7 11 20 -7 19 -6 12 15
c14 18 113 56 174 66 45 8 91 34 100 57 3 8 15 14 28 14 l23 0 6 17 7 16 15
-21 15 -21 32 5 c18 3 41 9 52 14 11 4 28 11 38 14 l17 5 0 20 0 20 48 22 c50
23 86 34 169 53 28 6 55 15 59 19 4 4 27 7 52 7 l44 0 29 28 29 27 38 2 c77 5
148 14 167 22 11 5 48 17 83 27 l63 17 62 -12 62 -12 52 11 c29 7 55 16 58 20
3 5 27 7 53 4 26 -2 102 -6 170 -7z m-3008 -1011 c0 -8 -7 -16 -15 -20 -8 -3
-15 -11 -15 -19 0 -7 -11 -23 -25 -35 -14 -12 -25 -26 -25 -32 0 -5 -6 -10
-13 -10 -8 0 -29 -21 -48 -47 -39 -55 -85 -103 -99 -103 -6 0 -10 -7 -10 -15
0 -20 -31 -70 -70 -113 -8 -10 -26 -32 -38 -50 -13 -17 -30 -32 -38 -32 l-14
0 0 20 0 19 68 69 c37 38 74 83 82 98 8 16 29 45 47 64 18 19 33 37 33 41 0
11 44 55 77 78 l33 22 6 27 c11 47 64 78 64 38z m4060 -416 c41 -5 192 -14
335 -20 143 -6 305 -18 360 -26 55 -8 141 -19 190 -25 121 -14 243 -38 280
-54 17 -7 53 -17 80 -20 28 -4 70 -18 95 -30 25 -12 56 -25 70 -28 57 -14 210
-131 273 -208 70 -86 107 -138 107 -149 0 -6 4 -18 9 -28 32 -61 51 -105 51
-122 0 -11 6 -34 14 -52 25 -59 39 -112 47 -173 4 -33 13 -82 19 -110 6 -27
18 -78 26 -112 l14 -62 1 -113 c0 -62 5 -140 10 -173 12 -72 24 -221 41 -527
l13 -227 26 -28 c15 -15 30 -39 34 -53 3 -14 17 -45 30 -70 13 -25 27 -63 31
-84 4 -22 16 -55 27 -73 10 -18 23 -52 28 -74 5 -23 15 -47 22 -54 7 -7 19
-32 26 -56 7 -24 19 -57 27 -74 26 -57 44 -120 44 -155 0 -19 7 -48 16 -65 16
-30 29 -108 44 -255 4 -47 13 -105 19 -130 6 -25 15 -155 21 -290 17 -377 26
-516 35 -530 4 -7 14 -56 20 -109 12 -94 15 -97 31 -36 l9 30 3 -54 3 -53 -14
-17 c-21 -24 -27 -88 -37 -371 -4 -140 -13 -295 -19 -345 -5 -49 -17 -171 -27
-270 -9 -99 -22 -198 -30 -220 -7 -22 -16 -71 -19 -110 -9 -97 -33 -253 -40
-266 -4 -5 -13 -51 -20 -102 -20 -131 -33 -206 -40 -216 -3 -5 -14 -62 -25
-128 -11 -65 -27 -138 -35 -163 -8 -25 -19 -76 -25 -115 -8 -59 -49 -216 -75
-290 -10 -26 -40 -95 -73 -167 l-27 -56 -20 -4 c-11 -1 -21 -11 -23 -20 l-3
-16 21 5 21 6 -3 -34 -3 -34 -39 2 c-22 2 -44 7 -49 12 l-9 9 9 29 10 28 -11
17 -11 18 19 31 19 32 1 66 c1 36 -2 97 -5 136 l-7 69 -11 4 -11 4 0 -26 c0
-13 -4 -28 -10 -31 -5 -3 -10 -20 -10 -36 l0 -30 -17 -5 c-10 -3 -24 -9 -32
-13 -14 -7 -40 -89 -34 -108 2 -6 -1 -14 -6 -18 -6 -3 -11 -17 -11 -31 0 -14
-5 -35 -12 -47 -6 -12 -12 -50 -13 -85 l-2 -62 -20 -23 -21 -22 11 -57 10 -58
-14 -57 c-7 -32 -12 -62 -10 -68 2 -5 5 -19 6 -29 1 -11 7 -22 13 -24 7 -2 12
-17 12 -33 l0 -30 -15 -5 -15 -6 0 -38 c0 -22 4 -41 9 -44 10 -7 21 17 21 46
0 11 14 37 30 57 46 54 46 55 54 84 3 15 11 27 16 27 18 0 11 -45 -15 -98 -14
-29 -25 -58 -25 -64 0 -7 -12 -31 -25 -53 -14 -22 -25 -48 -25 -58 0 -24 -29
-67 -46 -67 -8 0 -14 7 -14 15 0 8 5 15 11 15 14 0 7 42 -8 48 -7 2 -13 -3
-13 -11 0 -8 -6 -20 -14 -26 -8 -7 -17 -24 -21 -38 l-6 -27 15 -8 c16 -9 22
-38 8 -38 -4 0 -13 5 -19 11 l-12 12 -12 -46 c-6 -26 -17 -52 -25 -58 -8 -6
-14 -23 -14 -38 l0 -26 -40 -55 c-22 -30 -51 -71 -64 -92 -14 -20 -30 -39 -35
-43 -6 -3 -15 -23 -21 -44 l-10 -39 -29 -11 c-15 -7 -48 -32 -72 -57 -24 -24
-49 -44 -57 -44 -7 0 -27 -14 -44 -30 -16 -17 -33 -30 -37 -30 -3 0 -30 -22
-59 -50 -29 -27 -56 -50 -60 -50 -4 0 -31 -22 -60 -49 -30 -27 -71 -61 -93
-75 l-39 -26 0 -20 c0 -11 -5 -20 -10 -20 -6 0 -28 -11 -50 -25 l-40 -25 -5
-28 c-4 -15 -13 -40 -22 -55 l-15 -29 9 -9 9 -9 37 18 36 17 -4 12 c-2 7 7 20
20 29 l24 16 21 -7 20 -6 0 14 c0 7 11 24 24 36 l24 22 18 -3 19 -3 3 22 c2
13 9 23 16 23 8 0 19 7 26 15 7 8 23 15 36 15 12 0 29 8 36 18 7 9 24 22 38
28 36 16 90 63 90 79 0 8 14 20 30 29 l31 15 25 -39 c28 -42 28 -43 -10 -105
-36 -59 -56 -97 -56 -109 l0 -10 12 12 c18 18 28 15 28 -8 0 -22 -68 -126
-117 -178 -18 -19 -33 -36 -33 -37 0 -2 -23 -28 -51 -57 -28 -29 -62 -70 -75
-90 -13 -20 -32 -39 -44 -43 -11 -3 -20 -12 -20 -19 0 -20 -292 -310 -370
-368 -19 -15 -73 -63 -120 -107 -47 -45 -93 -83 -102 -87 -10 -3 -18 -10 -18
-15 0 -5 -15 -17 -34 -26 -19 -9 -37 -24 -39 -34 -3 -10 -16 -23 -29 -28 -12
-5 -35 -23 -51 -40 -15 -17 -34 -31 -42 -31 -8 0 -15 -4 -15 -10 0 -5 -12 -13
-27 -16 -16 -4 -39 -16 -53 -28 -14 -12 -50 -33 -80 -46 -30 -13 -66 -32 -79
-42 -13 -10 -30 -18 -38 -18 -7 0 -16 -7 -19 -15 -4 -9 -32 -27 -63 -42 -80
-37 -92 -41 -132 -48 -21 -3 -42 -12 -49 -20 -7 -8 -18 -15 -25 -15 -7 0 -18
-6 -24 -14 l-12 -14 -97 -18 c-53 -9 -107 -24 -120 -32 l-22 -14 -55 7 -56 7
-42 -21 -42 -20 -60 3 c-33 2 -148 -1 -257 -7 l-196 -11 -184 13 -183 13 -55
18 c-30 10 -82 23 -115 29 -80 15 -134 32 -170 53 l-30 17 -55 -2 c-31 0 -62
3 -70 8 l-15 10 45 5 45 5 0 15 c0 8 -9 16 -20 18 -23 3 -63 21 -84 36 -7 6
-26 9 -41 8 -16 -2 -31 1 -35 7 -3 6 -15 11 -25 11 -11 0 -24 8 -29 19 -6 10
-22 22 -36 25 l-25 6 0 19 c0 11 11 28 24 39 l24 19 -8 13 -8 13 -18 -5 c-11
-3 -26 -9 -35 -12 l-16 -7 -6 20 -5 21 -54 0 c-29 0 -60 5 -68 10 l-15 10 15
10 c8 5 27 7 43 4 l27 -6 0 13 0 12 -65 -6 -64 -6 -15 20 c-7 11 -40 33 -72
48 -33 16 -90 54 -127 85 -38 31 -72 56 -77 56 -5 0 -20 25 -35 55 l-26 56
-23 9 c-13 4 -33 25 -44 44 -22 37 -40 44 -60 24 l-12 -12 0 22 0 21 20 11
c24 13 26 26 4 34 l-17 6 -17 -15 c-9 -8 -20 -15 -24 -15 -14 0 -38 75 -45
140 l-6 65 -30 14 c-36 16 -75 50 -75 65 0 41 -108 186 -137 186 -18 0 -16 19
2 26 19 8 19 24 0 38 l-14 11 -3 45 -3 45 35 -1 c19 -1 44 -5 56 -8 l21 -8 18
18 17 17 -30 16 c-17 9 -47 37 -67 63 -20 25 -49 51 -65 58 -16 7 -51 35 -79
63 -93 96 -127 127 -139 127 -6 0 -26 17 -44 37 -18 21 -62 68 -98 104 -36 36
-80 87 -97 112 -18 26 -44 52 -58 57 -14 5 -25 15 -25 22 0 14 -39 73 -87 134
-18 23 -33 47 -33 55 0 19 -75 152 -94 168 -9 8 -16 19 -16 25 0 7 -15 30 -33
52 -18 21 -50 75 -71 119 -22 44 -42 82 -45 85 -3 3 -16 28 -29 55 -13 28 -27
57 -33 65 -29 48 -49 92 -49 110 0 11 -6 31 -14 43 -7 12 -21 58 -31 102 -10
44 -21 85 -25 90 -4 6 -17 44 -29 85 -13 41 -34 109 -47 150 -13 41 -28 104
-33 140 -5 36 -17 92 -26 125 -8 33 -22 98 -30 145 -7 47 -22 123 -33 170 -11
47 -23 112 -27 145 -3 33 -13 83 -20 110 -7 28 -21 104 -30 170 -9 66 -22 152
-30 190 -13 69 -29 190 -40 315 -3 36 -14 94 -23 130 l-16 65 -1 400 0 400 12
170 c7 94 17 247 23 340 18 291 31 457 41 535 6 41 13 93 15 115 19 181 39
315 50 344 8 18 14 48 14 66 0 39 27 173 40 197 5 9 14 47 20 85 6 37 22 94
34 128 13 33 27 75 30 93 3 19 17 56 31 84 14 27 25 58 25 68 0 10 13 47 28
82 l29 63 6 345 c6 336 13 436 42 570 8 36 17 101 20 144 3 44 13 105 22 135
8 31 21 78 29 106 8 27 14 55 14 63 0 14 32 90 80 187 17 34 30 64 30 67 0 56
183 250 256 272 12 4 29 15 39 26 10 11 25 20 33 20 8 0 49 16 92 35 43 19 83
35 90 35 8 0 41 11 75 25 34 13 89 27 121 31 32 3 79 12 104 19 56 17 170 33
320 45 63 6 162 16 220 24 58 8 202 19 320 25 118 6 298 18 400 27 260 21 306
22 1345 17 l930 -4 75 -9z m1890 -327 c-1 -5 -10 -19 -20 -32 l-20 -23 -15 6
c-18 7 -19 28 -3 44 13 13 58 17 58 5z m-6650 -247 c0 -7 -7 -19 -15 -26 -8
-7 -15 -25 -15 -40 0 -29 -33 -80 -45 -69 -3 4 9 39 27 78 30 67 48 88 48 57z
m7039 -814 c5 -10 15 -50 21 -88 7 -38 18 -73 24 -79 23 -18 36 -53 36 -97 0
-68 4 -94 17 -109 18 -22 34 -126 35 -229 0 -14 4 -30 9 -36 11 -13 15 -180 5
-211 l-7 -21 28 -14 27 -13 -3 -50 c-1 -28 2 -69 7 -92 l10 -42 -14 -27 -14
-26 6 -23 6 -23 -11 -7 -12 -7 7 -33 6 -33 -19 -10 -18 -11 12 -19 c6 -10 8
-24 4 -30 l-7 -12 -22 25 c-12 14 -22 34 -22 44 0 11 -4 22 -9 25 -5 3 -12 20
-15 38 -4 18 -15 43 -26 56 l-19 24 -19 -6 -19 -6 -1 27 c0 16 -3 53 -7 83
l-7 55 -15 12 c-9 7 -18 27 -22 45 l-7 33 -19 4 c-11 2 -30 13 -41 25 l-21 21
-7 65 c-4 36 -9 109 -12 163 l-6 99 11 11 c16 16 13 37 -5 37 l-16 0 5 20 c3
11 1 23 -4 26 -20 12 -6 104 16 104 l13 0 7 68 c8 76 17 92 45 85 22 -6 26 7
8 25 l-12 12 12 20 12 19 -19 11 -19 10 5 20 c7 28 24 36 35 16 5 -9 18 -16
28 -16 l20 0 0 15 c0 8 -4 15 -10 15 -5 0 -10 7 -10 15 0 21 27 19 39 -3z
m-54 -969 c9 -21 14 -53 13 -73 l-4 -35 -12 29 c-7 16 -24 42 -37 58 -14 16
-25 36 -25 44 l0 14 25 0 25 0 15 -37z m755 -2158 c0 -6 -41 -48 -92 -95 l-91
-84 -56 -84 c-83 -124 -151 -245 -151 -269 0 -9 -9 -26 -20 -38 -10 -11 -26
-45 -33 -75 l-15 -55 -7 36 c-7 36 9 180 25 234 5 17 11 73 14 125 2 52 5 99
5 104 1 5 8 3 16 -4 19 -16 34 -5 28 20 l-6 21 14 17 c27 33 39 62 39 91 0 37
18 51 66 50 21 0 59 3 84 8 25 4 75 8 113 9 l67 0 0 -11z m-156 -354 c9 -28
16 -74 16 -103 0 -29 7 -75 16 -103 17 -57 47 -217 71 -380 l16 -110 -12 -95
c-6 -52 -11 -117 -11 -145 l-1 -50 -14 -19 -15 -20 0 -51 0 -50 -31 -75 c-17
-41 -44 -93 -60 -114 -16 -22 -29 -47 -29 -56 0 -8 -13 -27 -30 -42 l-30 -26
0 -21 c0 -12 -4 -21 -9 -21 -4 0 -18 -35 -31 -77 -12 -43 -28 -83 -35 -88 -7
-6 -15 -24 -17 -40 l-3 -30 -22 0 -23 0 -18 -35 -17 -35 -35 2 -35 3 28 -23
c15 -13 27 -29 27 -37 0 -15 38 -62 63 -77 7 -4 21 -25 31 -47 l18 -38 -12
-12 -11 -11 -15 19 -14 20 0 -19 c0 -11 -17 -34 -37 -52 l-37 -33 -28 0 c-48
0 -131 32 -163 62 l-30 29 1 87 c0 83 17 169 39 202 5 8 10 49 10 91 l1 76 24
51 c28 58 31 60 59 31 l19 -21 21 11 c11 6 25 20 31 31 6 11 17 20 24 20 8 0
19 14 25 30 l10 30 20 0 c20 0 71 40 71 55 0 4 11 18 25 31 l25 23 0 29 0 30
25 23 25 24 0 25 c0 15 -5 31 -11 37 -6 6 -9 21 -7 34 l3 24 22 -2 23 -3 6 41
c4 22 13 43 20 46 21 8 16 22 -10 29 -13 3 -28 16 -34 28 l-10 22 25 22 c14
12 29 22 35 22 17 0 2 25 -18 28 -57 11 -95 78 -96 170 l0 63 -21 8 -20 8 22
15 23 16 -12 39 c-14 42 -46 83 -66 83 -18 0 -21 17 -10 66 l10 43 21 3 20 3
-3 25 -2 26 30 17 30 18 0 23 c0 13 7 29 15 36 l15 12 0 53 0 53 27 31 c36 40
38 40 57 -18z m-305 -694 c5 -7 20 -52 32 -101 l22 -89 -11 -56 c-18 -96 -24
-113 -53 -157 -16 -23 -29 -49 -29 -58 0 -9 -9 -24 -20 -33 -11 -10 -20 -23
-20 -29 0 -15 -29 -72 -41 -79 l-9 -6 0 54 c0 29 9 87 20 128 11 41 20 92 20
114 0 22 4 55 10 74 5 19 12 75 16 125 5 84 9 104 29 161 l7 20 9 -28 c4 -16
12 -34 18 -40z m-7565 -323 c17 -63 20 -114 10 -151 -10 -36 -24 -16 -24 33
l0 44 -15 0 -15 0 -1 33 c-3 73 -1 127 6 144 l8 18 8 -30 c4 -16 15 -57 23
-91z m76 -464 c0 -37 23 -147 45 -216 l13 -41 -8 -34 -8 -34 -1 43 -1 42 -15
0 c-8 0 -22 11 -30 24 l-16 24 -11 95 -11 95 14 30 13 31 8 -12 c4 -7 8 -28 8
-47z m6948 -1111 l3 -25 -21 -19 -20 -18 0 -36 -1 -36 -18 -22 c-35 -42 -55
-24 -25 22 l16 24 -12 37 -12 36 33 34 c37 38 53 39 57 3z m-6026 -1346 c14
-21 29 -47 32 -59 4 -12 22 -35 41 -53 19 -17 35 -37 35 -44 0 -6 12 -23 25
-36 14 -13 25 -29 25 -37 0 -7 10 -24 23 -38 12 -13 40 -48 62 -76 22 -29 87
-108 145 -177 58 -68 112 -135 121 -148 24 -38 191 -236 222 -264 15 -14 27
-33 27 -42 0 -9 9 -24 20 -34 21 -19 27 -45 10 -45 -5 0 -15 10 -21 22 -7 13
-31 40 -53 60 -78 72 -98 93 -183 193 -48 55 -92 105 -98 110 -12 10 -123 148
-185 231 -19 25 -50 63 -67 83 -18 20 -33 40 -33 45 0 5 -7 16 -16 25 -28 29
-114 155 -135 199 -11 24 -29 52 -40 63 l-19 19 0 30 0 31 18 -10 c10 -5 30
-27 44 -48z m8244 -3468 c18 -14 38 -25 44 -25 6 0 15 -11 20 -25 5 -14 16
-25 24 -25 7 0 20 -10 29 -22 l15 -23 13 13 c35 33 63 6 29 -28 l-20 -20 -28
0 -27 0 -10 22 c-6 12 -21 25 -34 28 l-25 6 -8 31 c-4 17 -15 36 -23 43 l-16
13 -11 -11 -11 -11 16 -7 c18 -7 23 -34 7 -34 -56 0 -101 53 -55 64 l24 6 -5
15 -6 15 12 0 c7 0 28 -11 46 -25z"/>
<path d="M5516 13952 c-10 -9 -7 -60 4 -67 11 -7 80 20 80 32 0 10 -77 43 -84
35z"/>
<path d="M3643 10436 l-22 -21 20 -125 c10 -69 22 -151 25 -184 l6 -58 10 10
c6 6 17 8 24 5 l13 -5 26 57 25 57 -6 22 c-3 12 2 42 10 67 9 24 19 72 22 107
l7 62 -11 0 c-12 0 -22 -24 -22 -57 l0 -25 -12 4 c-7 3 -14 21 -16 41 l-3 37
-25 0 -25 0 -5 -15 c-4 -8 -10 -15 -15 -15 -14 0 -11 38 3 42 l12 4 -9 6 c-6
3 -20 -4 -32 -16z"/>
<path d="M8775 10440 c-115 -9 -223 -22 -238 -29 -16 -6 -48 -11 -71 -11 -48
0 -259 -35 -277 -45 -6 -4 -39 -11 -73 -15 l-63 -8 -66 -31 c-36 -17 -70 -31
-76 -31 -7 0 -39 -14 -72 -31 l-59 -31 -32 -45 -32 -44 -13 17 c-7 10 -13 22
-13 28 0 5 -11 -1 -25 -14 -14 -13 -25 -28 -25 -33 0 -5 -6 -23 -14 -40 -8
-18 -21 -53 -29 -78 l-14 -45 6 -37 6 -37 50 -41 50 -41 95 4 c52 2 104 9 115
15 26 15 82 29 225 58 63 13 131 28 150 34 19 6 58 11 85 11 50 0 217 32 265
50 25 10 135 19 340 28 58 2 165 -1 239 -8 l134 -13 26 -13 c14 -8 33 -14 42
-14 8 0 24 -7 35 -15 10 -8 28 -15 38 -15 11 0 36 -11 55 -23 20 -13 59 -38
86 -56 72 -46 187 -140 220 -181 16 -19 56 -57 88 -84 l59 -49 9 14 c10 15 9
21 -16 88 -39 106 -106 241 -161 323 -37 54 -62 85 -147 182 -29 32 -53 62
-55 67 -7 18 -213 180 -241 190 -16 6 -32 17 -35 25 -3 8 -12 14 -20 14 -7 0
-27 7 -42 15 l-29 15 -135 -1 c-74 -1 -229 -9 -345 -19z m-240 -200 l6 -10
-30 -6 c-17 -4 -31 -12 -31 -19 0 -17 -23 -25 -40 -15 l-13 8 24 12 c13 7 28
19 32 26 9 16 43 19 52 4z"/>
<path d="M4390 10239 c-36 -5 -105 -13 -155 -18 -128 -13 -156 -25 -223 -93
-14 -16 -32 -28 -39 -28 -8 0 -18 -11 -24 -24 -6 -13 -22 -29 -35 -35 -13 -6
-24 -14 -24 -19 0 -4 -18 -27 -40 -51 -22 -24 -58 -74 -81 -112 -22 -38 -44
-69 -49 -69 -6 0 -10 -6 -10 -14 0 -8 -6 -21 -13 -28 -8 -7 -22 -31 -32 -53
-10 -22 -31 -67 -46 -101 -16 -33 -29 -71 -29 -85 0 -13 -6 -35 -13 -49 -49
-94 -34 -183 21 -128 35 35 4 -78 -39 -142 -9 -14 -22 -45 -29 -70 -7 -25 -21
-62 -32 -83 -10 -21 -28 -75 -38 -120 -24 -106 -36 -151 -71 -273 -15 -55 -33
-138 -39 -185 -6 -46 -15 -118 -20 -159 -6 -41 -12 -205 -15 -365 l-6 -290 11
-90 c5 -49 16 -128 24 -175 8 -47 22 -137 31 -200 9 -63 22 -146 31 -185 8
-38 23 -117 35 -175 11 -58 24 -123 29 -145 28 -125 44 -184 56 -214 l14 -33
0 -72 c0 -39 10 -132 21 -206 12 -74 25 -171 31 -215 5 -44 19 -120 29 -170
11 -49 24 -122 29 -162 4 -40 11 -77 14 -82 4 -5 11 -36 17 -68 6 -32 14 -62
19 -68 4 -5 10 -36 13 -68 l6 -58 20 -34 c11 -19 23 -55 26 -82 4 -26 16 -69
27 -96 l20 -47 14 0 14 0 0 -25 c0 -14 5 -25 11 -25 l12 0 -7 38 -6 38 16 23
16 23 -5 35 -6 35 11 18 12 18 -14 44 c-7 23 -14 88 -16 143 -2 55 -5 150 -8
210 l-4 110 14 22 14 22 0 78 c-1 74 -17 163 -33 179 -4 4 -7 17 -7 28 -1 27
-23 56 -43 56 -18 0 -27 21 -27 60 0 16 -4 32 -10 35 -5 3 -10 16 -10 29 0 12
-5 27 -11 33 l-12 12 8 18 c9 21 10 91 2 100 -4 3 1 19 9 36 l16 30 -17 37
-17 38 4 44 c3 23 8 51 12 61 l8 17 -37 35 -37 36 -5 39 -6 40 -14 0 -14 0 6
54 7 53 -19 14 -19 14 -13 57 -14 56 8 19 c4 10 10 45 14 78 l8 60 -18 28 -17
29 9 34 10 34 -11 19 c-5 11 -10 33 -10 49 l0 30 -15 6 -15 5 0 58 0 58 32 0
32 0 4 18 4 19 -25 26 c-35 37 -47 73 -47 143 l0 59 -34 0 c-35 0 -52 12 -42
29 l6 9 28 -7 27 -8 28 10 27 9 0 34 0 34 -25 16 c-27 18 -32 43 -13 74 l12
19 -13 25 c-8 13 -13 44 -13 68 0 24 -4 66 -10 94 l-9 51 16 77 c9 42 13 85
10 96 -3 10 0 39 6 65 l12 47 31 -8 c17 -4 90 -8 161 -10 l130 -3 23 15 c12 8
45 16 71 17 l49 2 24 -22 c14 -13 28 -23 34 -23 5 0 22 -14 38 -30 16 -17 37
-30 47 -30 20 0 96 -37 105 -51 3 -5 34 -9 69 -9 35 0 66 -4 69 -9 3 -5 32
-12 63 -15 32 -4 78 -9 103 -12 l45 -6 -34 26 c-19 14 -47 26 -61 26 -33 0
-128 27 -155 44 -11 7 -36 16 -55 20 -51 10 -170 77 -193 108 l-20 27 12 38
c12 36 82 123 100 123 4 0 18 11 31 25 13 14 29 25 36 25 7 0 17 6 21 13 4 7
26 24 48 37 22 13 51 33 65 45 14 13 37 29 51 36 15 8 41 22 59 32 l32 19 10
-10 9 -9 -26 -51 c-14 -28 -32 -89 -41 -134 l-14 -83 10 -45 c5 -25 12 -61 15
-81 6 -38 50 -113 97 -164 15 -16 28 -35 28 -42 l0 -11 78 -3 c150 -5 318 -2
377 8 33 6 93 16 133 23 l74 12 -6 23 -6 23 16 13 c9 8 32 46 51 87 l35 73 5
59 6 60 -13 61 c-7 33 -19 66 -26 74 -7 7 -16 24 -20 39 -3 14 -10 29 -15 32
-14 8 -10 24 6 24 66 0 277 -204 317 -306 11 -27 29 -59 40 -71 l20 -22 -5
-23 -6 -23 -73 -19 c-40 -10 -92 -24 -116 -32 -23 -8 -55 -14 -70 -14 -15 -1
-45 -9 -67 -20 -22 -11 -46 -19 -53 -20 -28 0 -4 -25 28 -30 l34 -5 -27 -18
-28 -18 -30 6 -29 7 0 -10 c0 -6 6 -12 13 -15 l12 -5 -11 -12 -12 -12 -6 11
c-4 6 -15 11 -25 11 l-19 0 -5 -21 -6 -21 -31 7 -31 7 -16 -13 c-20 -17 -79
-40 -120 -46 l-31 -5 -5 -17 -4 -16 -79 -25 -79 -24 -150 2 -150 2 -85 15
c-47 9 -103 20 -125 25 -71 16 -124 22 -145 15 l-20 -6 0 -19 0 -18 50 -45 49
-44 43 -12 c24 -6 79 -21 123 -33 l80 -22 160 0 160 -1 136 27 c75 15 151 33
170 41 19 8 57 21 84 30 43 14 198 95 332 173 23 13 61 41 83 62 l41 38 -9 24
-9 25 33 22 c18 13 37 23 43 23 15 0 61 53 61 70 -1 20 -37 130 -49 144 -4 6
-11 21 -13 33 l-6 22 13 -5 c7 -3 16 -1 20 5 3 6 28 11 55 11 l48 0 55 -60 56
-60 10 33 c6 18 14 62 17 97 l5 64 25 29 24 29 0 34 0 34 -19 0 -20 0 -6 48
c-9 66 -15 83 -26 77 -5 -4 -9 -17 -9 -30 0 -30 -16 -41 -25 -18 -3 10 -17 26
-31 36 l-25 18 -10 -30 -11 -30 -20 -7 -20 -6 -11 11 c-6 6 -25 11 -43 11
l-32 0 -6 -15 c-6 -17 -36 -21 -36 -5 0 6 7 13 15 16 8 4 12 11 9 16 l-6 10
-29 -6 -28 -5 -21 29 c-12 17 -26 30 -33 30 -10 0 -86 48 -97 61 -3 4 -16 10
-30 14 -14 4 -32 13 -40 21 -9 7 -36 22 -62 34 -25 11 -51 26 -58 34 -6 8 -24
15 -38 14 -15 -1 -74 4 -132 11 -58 8 -177 13 -265 13 l-160 0 -82 -15 c-74
-14 -133 -35 -248 -87 -22 -11 -61 -24 -87 -31 l-47 -13 -4 -18 -5 -18 -25 0
-25 0 -5 -18 -4 -19 -32 -6 -31 -7 -45 -45 c-25 -25 -54 -45 -65 -45 l-19 0 2
-27 2 -28 -14 3 c-20 4 -51 -28 -51 -54 0 -13 -5 -34 -11 -48 l-11 -24 -15 5
-14 6 -23 -22 c-13 -13 -26 -36 -30 -52 l-5 -29 -21 0 c-11 0 -20 -4 -20 -9 0
-5 -12 -23 -26 -40 l-26 -31 -47 4 c-25 3 -50 5 -55 5 -5 1 3 12 18 26 l26 24
0 25 c0 14 -7 29 -15 34 l-16 8 16 110 c9 60 20 121 25 136 5 15 6 43 3 62
l-5 34 26 57 26 58 -12 15 -13 15 23 15 22 14 0 29 c0 16 -3 29 -7 29 -15 0
-31 -15 -34 -33 -2 -10 -8 -17 -14 -15 -12 4 -12 33 0 68 l8 25 -16 -13 c-9
-8 -21 -11 -27 -7 -15 9 -12 41 5 55 8 7 15 19 15 27 0 18 152 164 215 207 86
57 156 96 172 96 18 0 116 24 192 47 l54 16 227 -5 227 -6 19 -10 c25 -14 220
-35 358 -39 60 -1 114 -7 121 -13 6 -5 90 -14 186 -20 96 -5 193 -13 217 -16
l42 -6 46 13 45 14 20 31 c36 59 16 158 -53 251 l-38 53 -28 6 c-15 3 -47 14
-72 24 l-45 19 -47 -1 -47 -1 -41 27 c-23 15 -58 30 -78 33 -21 2 -53 11 -72
18 -69 26 -127 35 -285 45 -88 6 -191 15 -230 20 -83 11 -303 10 -395 -1z
m683 -993 c40 -8 95 -17 122 -21 68 -9 123 -26 136 -42 6 -7 18 -13 27 -13 26
0 146 -86 183 -130 18 -23 44 -52 57 -65 12 -12 22 -27 22 -34 0 -18 -34 -12
-47 8 -7 11 -20 19 -30 19 -10 -1 -47 16 -83 36 -35 21 -77 40 -92 43 -15 3
-33 12 -39 19 -6 8 -22 14 -35 14 -12 0 -26 5 -29 10 -3 6 -19 10 -34 10 -15
0 -63 10 -107 22 l-79 22 -145 -1 -145 -1 -45 -12 c-25 -6 -72 -17 -105 -24
-81 -17 -214 -64 -246 -87 -15 -10 -37 -23 -50 -28 -57 -21 -178 -113 -257
-194 -47 -50 -99 -83 -110 -73 -3 4 11 23 31 44 20 21 37 42 37 48 0 29 232
234 265 234 7 0 18 7 25 15 7 8 54 35 104 59 155 74 223 93 371 107 92 8 137
14 218 28 4 0 40 -5 80 -13z m-271 -335 l33 -29 -2 -49 -2 -48 -26 -22 -26
-23 -48 0 -48 0 -27 21 -26 20 0 39 0 38 27 32 c28 34 54 48 90 49 l23 1 32
-29z m478 -215 l12 -24 -4 -95 -4 -95 -27 -36 c-15 -20 -37 -41 -48 -46 l-20
-11 -162 -1 c-185 0 -230 8 -281 48 -43 35 -43 35 -6 75 l29 33 18 -15 c10 -9
43 -26 73 -39 l54 -22 58 5 57 5 37 23 c46 28 114 100 138 148 37 72 56 84 76
47z"/>
<path d="M7567 9630 c-37 -30 -87 -107 -87 -136 l0 -24 -25 0 -25 0 0 -25 0
-26 -25 -23 c-14 -13 -25 -31 -25 -40 0 -9 -9 -34 -20 -56 -11 -22 -20 -45
-20 -53 0 -7 -6 -19 -12 -25 -7 -7 -13 -16 -14 -20 -3 -23 -19 -42 -35 -42
l-18 0 -16 -30 c-8 -16 -21 -29 -27 -27 l-13 2 -3 -25 c-2 -14 -10 -32 -17
-40 -48 -54 -71 -280 -29 -280 l14 0 0 -30 0 -30 25 -10 c14 -5 38 -7 54 -4
l28 6 7 -19 8 -18 19 39 19 39 -17 13 -18 12 1 41 1 42 18 19 18 20 -6 35 c-3
20 -2 48 4 62 l9 25 25 -6 25 -6 0 57 0 58 15 29 c8 15 15 38 15 51 0 12 9 30
20 40 11 10 20 26 20 35 0 20 40 60 61 60 l14 0 19 63 c10 34 24 69 31 77 13
16 22 46 34 125 12 72 -2 84 -52 45z"/>
<path d="M9886 9456 c-15 -25 -31 -46 -36 -46 -6 0 -10 -6 -10 -14 l0 -15 22
-3 23 -3 12 -75 c6 -41 15 -87 18 -102 l7 -27 20 -7 19 -6 -11 -13 c-16 -19
-5 -36 55 -85 l55 -45 -5 -24 -6 -23 17 -26 16 -25 -5 -51 -5 -51 14 -33 13
-33 -5 -97 c-3 -53 -10 -112 -16 -129 -5 -18 -6 -43 -2 -55 l7 -22 19 24 19
24 17 -11 c9 -5 20 -27 23 -47 l6 -36 -13 -25 -12 -24 5 -40 c3 -23 8 -41 12
-41 3 0 13 -5 21 -10 l15 -9 -20 -15 -20 -16 23 -6 c29 -8 28 -18 -4 -33 l-26
-11 12 -15 c7 -8 18 -15 24 -15 l13 0 -5 -32 -4 -33 -21 -17 -21 -16 12 -27
c7 -14 12 -37 12 -50 0 -13 5 -27 10 -30 6 -3 10 -21 10 -39 l0 -34 -15 -12
c-8 -7 -15 -23 -15 -36 0 -13 -4 -24 -9 -24 -5 0 -12 -15 -16 -32 -4 -18 -14
-44 -22 -57 l-15 -23 7 -32 c4 -17 7 -69 5 -115 l-1 -85 -14 -10 c-7 -6 -16
-32 -20 -58 l-6 -48 15 -22 15 -22 -5 -22 c-3 -12 -1 -37 4 -57 l10 -35 -24
-11 -24 -11 0 -39 c0 -22 5 -43 10 -46 6 -4 8 -15 5 -24 l-5 -18 15 -13 c17
-14 20 -46 4 -55 -6 -4 -17 1 -24 11 l-14 19 -11 -32 c-6 -17 -18 -34 -27 -37
l-15 -6 6 -16 c3 -8 -1 -25 -9 -37 l-14 -22 1 -45 c1 -71 26 -77 53 -13 l15
35 14 -5 c17 -7 36 12 36 36 0 11 14 36 30 57 17 21 30 46 30 55 0 9 8 29 18
43 27 41 97 295 101 367 0 17 7 53 15 80 15 50 18 76 36 270 12 136 12 470 0
635 l-11 135 -34 170 c-33 167 -81 321 -123 400 -43 82 -62 126 -62 146 l0 19
-23 11 -23 10 -13 47 c-8 26 -17 52 -21 57 -4 6 -10 22 -14 38 -3 15 -12 27
-19 27 -28 1 -70 50 -43 50 36 0 32 26 -5 35 l-26 6 -27 -45z"/>
<path d="M8415 9375 c-27 -7 -70 -14 -95 -14 -53 -1 -129 -26 -144 -47 -6 -7
-31 -18 -56 -22 l-45 -9 -50 -34 c-28 -19 -63 -41 -78 -49 -16 -8 -33 -22 -38
-32 -5 -10 -19 -18 -29 -18 l-20 0 0 -14 c0 -8 -10 -22 -21 -30 -12 -8 -30
-28 -40 -45 -10 -17 -25 -31 -33 -31 -8 0 -16 -7 -20 -15 -6 -18 -37 -20 -54
-3 l-11 11 -17 -14 c-9 -7 -20 -23 -25 -36 l-9 -23 -20 0 c-11 0 -28 -4 -38
-9 -9 -5 -25 -12 -36 -15 l-18 -6 6 -34 6 -34 -14 -5 c-8 -3 -20 1 -27 9 l-12
15 -18 -17 c-11 -10 -19 -29 -19 -44 l0 -27 24 -23 25 -23 15 6 c47 18 58 -21
25 -85 l-21 -41 11 -23 11 -24 -14 0 c-7 0 -21 -9 -31 -20 l-19 -20 12 -12 c7
-7 12 -21 12 -33 0 -29 28 -65 50 -65 l20 0 17 -27 c10 -16 23 -34 30 -41 7
-7 13 -22 13 -33 0 -23 15 -25 24 -4 6 17 15 19 36 5 l15 -9 -20 -15 -20 -15
18 -7 18 -7 12 12 c6 6 21 11 34 11 30 0 29 16 -4 50 -51 52 -63 67 -63 77 0
5 -9 18 -20 28 -11 10 -31 37 -45 61 l-25 43 0 38 0 38 32 60 c17 33 41 69 52
80 12 11 32 38 46 60 13 22 35 54 49 71 14 18 40 49 58 70 28 35 80 87 162
164 38 36 134 100 150 100 8 0 19 7 25 15 12 16 155 57 286 81 l85 16 95 -7
c132 -9 233 -24 244 -35 6 -6 20 -10 32 -10 28 0 147 -38 154 -49 3 -5 34 -19
70 -31 36 -12 72 -27 80 -35 8 -7 28 -15 44 -19 27 -7 89 -51 148 -106 47 -44
81 -70 92 -70 16 0 92 -83 101 -109 l6 -21 21 0 21 0 -6 29 -6 30 -67 68 c-36
37 -73 78 -81 90 -18 27 -129 103 -149 103 -8 0 -17 7 -20 15 -9 22 -166 95
-223 104 -28 4 -56 13 -63 18 -7 6 -56 21 -108 32 -52 12 -115 27 -140 33 -25
6 -103 12 -175 14 l-130 3 -50 -14z"/>
<path d="M8475 9210 c-16 -4 -48 -8 -70 -9 -22 -1 -53 -8 -69 -16 -15 -8 -34
-15 -42 -15 -22 0 -108 -31 -124 -45 -8 -7 -29 -16 -46 -19 -18 -4 -40 -16
-50 -27 -9 -10 -23 -19 -30 -19 -7 0 -19 -6 -26 -12 -7 -7 -39 -34 -70 -61
l-56 -47 -23 2 -23 3 -11 -23 c-7 -12 -21 -29 -31 -36 l-18 -14 13 -26 14 -26
-41 -82 -40 -83 -7 -51 -7 -52 23 -21 c24 -22 54 -27 78 -12 l14 9 -22 11
c-25 14 -26 31 -7 74 8 18 22 48 30 67 47 106 190 273 261 305 17 7 39 23 49
34 35 38 59 23 35 -22 -38 -69 -59 -237 -40 -301 5 -17 15 -50 21 -73 5 -23
25 -64 44 -91 18 -28 36 -61 40 -75 l6 -25 62 -15 63 -16 190 -6 c105 -4 259
-8 344 -10 84 -3 162 -7 174 -11 l20 -6 -6 15 -6 15 37 7 c20 3 64 15 96 26
33 10 72 19 88 19 l30 0 30 30 30 30 33 0 c19 0 37 5 41 11 l7 11 33 -5 c19
-3 34 -2 34 2 0 5 9 11 20 14 23 6 27 27 5 27 -19 0 -20 26 -1 33 l15 6 6 -19
6 -19 32 5 c18 3 38 7 45 10 l12 4 -11 18 -12 19 -31 -1 c-17 -1 -32 4 -34 9
l-2 10 55 1 c55 1 115 19 115 34 0 5 -3 15 -6 24 l-6 16 -32 0 -32 0 -17 20
c-21 25 -21 29 -1 52 l17 18 -13 15 c-7 8 -20 15 -30 15 l-18 0 -5 -21 -6 -21
-42 33 c-23 19 -56 48 -73 65 -76 75 -206 164 -240 164 -8 0 -20 9 -26 20 -6
11 -16 20 -23 20 -7 0 -35 10 -63 23 -63 30 -115 47 -143 47 -12 0 -32 5 -43
11 -47 25 -421 47 -493 29z m595 -190 c25 -16 50 -30 56 -30 61 0 344 -272
344 -330 l0 -20 -67 -44 c-77 -49 -156 -86 -185 -86 -11 0 -32 -6 -46 -14 -49
-26 -112 -46 -145 -46 -18 0 -42 -7 -53 -15 -37 -28 -97 -16 -69 14 42 45 73
89 80 111 4 14 11 30 16 35 4 6 15 33 24 60 l17 49 -4 87 -4 86 -37 75 c-20
41 -37 80 -37 86 l0 12 33 0 32 0 45 -30z m-627 -35 c8 -7 18 -30 21 -50 l7
-35 -13 -27 c-16 -33 -63 -61 -105 -62 l-32 -1 -28 24 -28 24 1 53 1 52 22 19
23 18 58 0 59 0 14 -15z m467 -213 c0 -7 7 -15 15 -18 20 -8 19 -30 -1 -38
l-16 -6 6 -43 c4 -23 9 -63 12 -88 l6 -46 -15 -14 c-40 -39 -67 -56 -117 -73
l-55 -19 -111 -5 -111 -5 -47 24 -47 23 -5 22 c-3 12 -1 32 6 44 l11 21 32 -8
c18 -4 68 -8 112 -7 l80 0 43 29 c23 16 42 32 42 37 0 4 11 18 25 30 31 27 65
91 65 122 0 13 3 37 6 54 l6 31 29 -27 c16 -15 29 -33 29 -40z"/>
<path d="M7895 8501 c-6 -10 -4 -11 101 -37 l70 -18 20 8 19 8 -25 10 c-14 6
-40 16 -58 24 -37 16 -118 19 -127 5z"/>
<path d="M7915 8380 c-19 -31 33 -90 80 -90 l24 0 11 20 11 20 -33 1 c-45 1
-63 10 -63 33 0 22 -20 33 -30 16z"/>
<path d="M9245 8340 c-3 -6 1 -12 9 -15 9 -3 23 -7 32 -10 9 -3 14 -11 12 -18
l-5 -12 -46 -3 -47 -3 0 16 0 17 -12 -6 c-7 -3 -21 -9 -30 -12 -19 -7 -25 -24
-8 -24 6 0 10 -4 10 -9 0 -13 -59 -41 -87 -41 l-23 0 0 21 0 20 -17 -3 -18 -4
3 -17 3 -17 -23 -2 c-13 0 -33 0 -45 1 -12 1 -38 -8 -58 -19 l-36 -20 -39 0
c-21 0 -51 5 -65 12 l-25 11 -39 -13 -40 -13 -16 17 c-20 20 -35 20 -61 2
l-20 -14 -65 -2 c-35 -2 -81 1 -102 5 l-38 7 -14 -18 -14 -19 -20 13 c-12 6
-31 12 -44 12 -13 0 -34 9 -47 20 -13 11 -29 20 -37 20 -8 0 -23 9 -35 19
l-21 20 6 15 6 16 -12 0 c-7 0 -29 -5 -50 -11 l-38 -10 4 -12 c2 -6 16 -14 31
-18 15 -4 42 -19 61 -33 18 -14 56 -35 84 -46 28 -11 58 -24 68 -29 37 -20
104 -41 130 -41 14 0 34 -6 42 -14 l16 -15 85 -12 c47 -7 171 -13 275 -13
l190 -1 110 29 c143 37 271 105 314 165 l22 30 -16 32 -17 32 -54 -6 -54 -6
-10 20 -11 19 -24 0 c-13 0 -27 -5 -30 -10z"/>
<path d="M7737 8272 l-28 -3 3 -11 c2 -6 19 -16 38 -22 l34 -11 8 -31 8 -32
44 -11 c25 -6 49 -17 53 -24 20 -31 138 -96 151 -83 10 11 -45 56 -68 56 -10
0 -25 8 -32 18 -7 9 -33 30 -57 47 -24 16 -55 44 -69 63 -30 40 -48 49 -85 44z"/>
<path d="M7224 7986 c-3 -9 -3 -24 2 -33 4 -10 8 -48 9 -85 l1 -68 16 -16 16
-16 31 17 32 16 19 -6 c26 -8 25 -15 -5 -44 -30 -28 -31 -45 -5 -105 l21 -46
14 0 c8 0 21 10 29 22 l16 22 0 -27 c0 -16 5 -37 10 -48 l11 -19 18 12 18 11
64 -12 63 -13 29 -24 c16 -13 32 -24 37 -24 10 0 40 -57 40 -75 0 -7 7 -18 16
-26 8 -7 29 -42 46 -78 l31 -66 8 -70 7 -70 -9 -10 c-5 -5 -9 -17 -9 -27 l0
-17 33 5 c17 3 38 7 45 10 6 2 12 -3 12 -12 0 -8 7 -26 16 -39 l16 -25 -13
-65 c-14 -70 -24 -89 -79 -143 -37 -37 -93 -65 -150 -75 -56 -11 -140 -39
-140 -47 0 -24 130 -26 208 -4 56 17 94 40 170 105 l41 35 -6 22 -6 23 16 17
c8 9 18 37 22 62 4 24 14 50 23 56 l15 11 -5 64 -4 64 -25 40 c-14 22 -31 55
-37 74 -7 19 -23 49 -37 67 -14 18 -25 37 -25 42 0 13 -74 107 -141 179 -9 10
-19 34 -23 54 -7 42 -40 89 -62 89 -7 0 -31 18 -51 40 l-38 40 -27 0 c-15 0
-39 5 -54 10 l-27 11 -29 -10 -29 -10 -6 15 -6 15 17 12 16 12 -6 23 -6 22
-54 0 -54 0 0 20 c0 27 -33 90 -59 114 l-21 19 -6 -17z"/>
<path d="M6390 7850 c-30 -11 -57 -26 -59 -32 -2 -7 -17 -24 -32 -38 -76 -68
-129 -122 -129 -131 0 -5 -11 -15 -25 -21 l-25 -11 -6 -26 c-5 -25 -18 -60
-34 -91 -19 -39 -54 12 -65 95 -2 17 -4 32 -5 35 0 3 -7 -3 -15 -13 l-14 -19
-17 10 -17 9 -31 -7 c-50 -12 -105 -42 -112 -62 l-5 -18 -23 0 -23 0 -39 -40
-38 -39 -23 5 -23 6 -8 -23 -9 -22 -6 16 c-9 23 -27 21 -27 -3 0 -11 -4 -20
-9 -20 -16 0 -175 -108 -237 -161 -34 -29 -81 -63 -105 -76 -78 -41 -153 -106
-176 -151 -1 -2 -13 -5 -27 -6 -32 -4 -76 -32 -76 -50 0 -8 -15 -26 -32 -40
-57 -45 -69 -60 -66 -81 l3 -20 34 3 c18 1 40 -3 49 -10 8 -7 29 -17 46 -23
l31 -10 0 -30 0 -30 -40 -13 c-22 -7 -50 -10 -62 -7 l-22 5 -7 -34 -6 -35 12
-38 c7 -21 16 -42 20 -48 4 -5 3 -21 -2 -35 l-9 -25 -18 24 -18 24 -17 -6 -16
-6 0 -29 c0 -15 5 -33 12 -40 l11 -11 -11 -26 c-7 -14 -12 -34 -12 -44 l0 -19
-20 -5 -20 -5 0 -21 0 -21 -14 0 c-8 0 -17 7 -20 16 l-6 15 -11 -7 -11 -7 5
-49 6 -49 -36 -39 -35 -40 -24 0 c-12 0 -26 -5 -30 -12 l-7 -11 16 -12 15 -11
-29 -48 c-16 -26 -32 -60 -36 -76 -3 -16 -12 -35 -19 -41 -8 -6 -14 -22 -14
-36 l0 -24 -15 -5 c-19 -8 -19 -29 1 -87 25 -72 44 -56 59 49 4 27 15 58 25
69 10 11 25 36 34 55 16 35 72 120 100 153 9 9 16 19 16 21 0 2 23 37 50 79
28 42 50 86 50 99 l0 23 30 17 c17 9 30 23 30 31 0 8 7 20 16 28 8 7 25 31 36
53 11 23 33 55 48 71 31 34 194 264 219 310 27 49 182 278 196 290 7 5 25 29
39 53 14 23 33 42 41 42 l15 0 0 -21 c0 -12 -5 -39 -11 -59 l-12 -38 11 -101
11 -101 23 -47 c13 -26 44 -70 69 -98 l47 -51 68 -34 69 -35 105 2 c58 0 157
6 220 13 110 11 152 13 203 9 12 -1 29 1 38 5 l16 7 14 -14 c17 -17 35 -26
185 -101 66 -33 126 -65 134 -72 8 -7 45 -15 81 -19 l66 -7 15 16 c9 9 18 21
20 28 l5 13 16 -14 c20 -16 47 -8 47 14 l0 15 30 0 30 0 0 11 0 11 -26 -6 -25
-7 3 23 3 22 23 12 c13 6 29 17 35 23 l10 10 -16 7 c-24 9 -21 25 14 62 l30
32 27 0 c15 0 43 5 62 10 50 15 244 35 318 32 l63 -2 29 15 c34 18 42 39 32
80 l-8 30 -42 21 -42 22 -78 6 c-144 12 -275 -30 -379 -122 -83 -73 -187 -151
-222 -168 l-34 -16 -58 1 c-32 0 -68 5 -80 12 l-22 11 17 10 18 10 -32 28 -31
28 3 38 3 39 43 3 44 3 -4 -18 -3 -18 -30 -6 -30 -5 40 -6 c51 -6 65 -1 62 25
l-2 20 31 8 30 9 16 34 c26 54 0 61 -75 22 l-46 -25 -63 -7 c-78 -8 -84 -11
-62 -35 l17 -18 -27 -10 c-33 -13 -33 -24 1 -49 l26 -19 -7 -12 c-4 -6 -15
-10 -24 -7 -10 2 -38 7 -64 11 l-47 6 -73 75 -73 75 -36 9 c-21 6 -39 16 -42
24 -5 12 -51 32 -117 53 l-15 4 25 14 c14 8 33 14 43 15 24 0 21 17 -5 31
l-23 12 -105 0 -105 -1 -64 -21 c-35 -12 -71 -21 -81 -21 -10 0 -23 -7 -30
-15 l-13 -15 -17 5 -17 5 -18 -20 c-20 -22 -51 -26 -58 -7 l-5 12 -15 -20 -15
-20 -21 25 -20 25 -1 51 c0 63 36 211 59 244 10 14 21 35 25 47 8 26 54 86 98
130 l33 33 22 0 22 0 11 20 11 20 44 0 c52 0 63 -12 41 -45 l-16 -25 -35 0
-35 0 -15 -24 c-9 -13 -25 -26 -35 -29 -11 -3 -20 -12 -20 -21 0 -9 -7 -16
-15 -16 -8 0 -15 -4 -15 -10 0 -5 7 -10 15 -10 8 0 15 5 15 10 0 6 6 10 13 10
6 0 29 5 50 11 l38 10 9 24 9 25 16 -6 16 -6 -11 -13 -11 -13 10 -6 c5 -4 25
1 44 10 l35 17 26 -7 c15 -4 34 -15 43 -26 21 -24 33 -17 33 19 0 64 68 160
113 161 10 0 21 9 25 21 13 34 117 85 195 95 28 4 58 11 64 17 l13 9 44 -11
c25 -6 54 -11 65 -11 l21 0 0 16 c0 8 -13 27 -30 41 -33 28 -38 48 -14 61 l16
9 -4 18 -3 19 -65 12 c-36 7 -67 13 -70 13 -3 0 -30 -9 -60 -19z"/>
<path d="M7160 7093 c-50 -7 -90 -53 -45 -53 8 0 15 4 15 9 0 22 101 31 125
11 l10 -9 25 19 25 20 -40 0 c-22 0 -49 2 -60 4 -11 2 -36 1 -55 -1z"/>
<path d="M8060 7047 c0 -14 -7 -32 -15 -41 l-15 -15 0 -35 c0 -35 13 -55 25
-36 3 5 11 10 17 10 l11 0 -6 -30 c-8 -38 0 -60 23 -60 l18 0 5 21 c9 33 25
13 32 -41 4 -27 13 -54 21 -61 8 -6 14 -20 14 -30 0 -10 5 -21 10 -24 6 -3 10
-15 10 -26 0 -10 6 -19 13 -19 22 0 37 23 37 56 l0 33 -30 44 c-16 25 -30 50
-30 55 0 6 -11 23 -24 39 -13 15 -29 45 -35 66 -7 20 -21 42 -31 47 -10 6 -20
22 -22 37 -2 14 -9 28 -15 31 l-13 4 0 -25z"/>
<path d="M7008 7029 c-10 -5 -18 -19 -18 -29 l0 -20 24 0 c13 0 31 3 40 6 l16
6 0 24 0 24 -22 0 c-13 0 -31 -5 -40 -11z"/>
<path d="M6330 6493 c-14 -3 -29 -8 -35 -13 -5 -4 -30 -11 -55 -15 -25 -4 -55
-13 -67 -21 -12 -8 -32 -14 -44 -14 -28 0 -105 -36 -142 -66 l-28 -23 -34 1
-35 1 -17 -15 c-10 -9 -70 -41 -133 -72 -63 -31 -135 -69 -160 -86 -25 -16
-51 -30 -58 -30 -19 0 -108 -49 -127 -70 -10 -11 -26 -20 -35 -20 -10 0 -31
-7 -46 -15 -16 -8 -36 -15 -45 -15 -8 0 -36 -13 -61 -29 l-47 -30 -11 14 -11
14 -17 -6 c-9 -4 -34 -17 -54 -30 -21 -13 -43 -23 -50 -23 -21 0 -120 -72
-163 -119 -22 -25 -47 -52 -56 -62 -20 -20 -69 -122 -69 -143 0 -9 -5 -35 -12
-59 l-11 -44 11 -131 c6 -72 16 -141 23 -154 7 -13 16 -54 20 -91 l6 -68 21
-22 c11 -12 25 -34 31 -49 l11 -28 19 0 19 0 8 32 c3 18 12 42 19 53 22 35 44
127 48 201 l4 72 17 23 c9 13 16 36 16 51 0 34 16 45 23 16 l6 -21 68 6 68 6
55 -25 c30 -14 63 -29 72 -34 20 -11 65 -18 171 -24 42 -3 82 -8 87 -11 5 -3
161 -6 347 -6 342 1 444 -5 588 -35 44 -9 137 -18 207 -21 l127 -5 93 21 c155
35 228 41 494 42 141 0 279 4 308 10 28 5 123 14 211 19 88 6 180 13 204 16
l45 6 32 -17 33 -18 16 7 c9 3 19 15 22 26 l5 20 28 0 28 0 5 20 5 20 25 0
c14 0 32 6 39 13 7 8 37 22 66 31 l52 18 6 23 c9 35 1 67 -18 79 l-18 11 -17
-13 c-10 -7 -45 -26 -78 -42 -33 -17 -71 -37 -85 -45 -14 -8 -32 -15 -41 -15
-9 0 -28 -9 -42 -20 l-26 -21 -103 -10 c-167 -17 -312 -22 -383 -14 l-67 7
-16 19 c-9 10 -27 19 -40 19 l-23 0 -6 15 c-3 9 -18 22 -33 30 l-27 14 -64 1
c-35 1 -116 9 -179 17 l-115 14 -98 -6 -98 -7 -24 22 -24 23 -24 -16 -24 -16
-12 12 c-24 24 -10 87 21 87 11 0 37 15 59 33 l39 32 6 38 7 37 13 0 c20 0 27
19 14 35 l-12 15 25 9 24 9 7 34 c3 18 16 41 29 50 31 24 13 35 -27 16 -18 -9
-55 -20 -82 -24 -27 -4 -79 -20 -116 -36 -37 -15 -78 -28 -92 -28 -14 0 -28
-5 -31 -11 l-7 -10 19 -5 c28 -8 44 -40 50 -103 3 -31 11 -65 16 -76 24 -44
-7 -128 -61 -166 -50 -35 -85 -39 -232 -22 -69 7 -152 16 -185 19 -33 3 -70
10 -82 16 l-22 11 -43 -6 c-446 -56 -576 -59 -626 -14 -10 9 -24 17 -31 17
l-12 0 7 22 c8 25 128 148 144 148 11 0 63 34 88 58 7 6 31 12 53 12 21 0 39
4 39 8 0 9 80 52 97 52 5 0 22 14 38 30 l29 30 32 0 32 0 12 15 c7 8 20 15 28
15 l16 0 -12 12 -11 11 -28 -12 c-15 -7 -54 -22 -88 -33 -33 -11 -85 -33 -116
-49 -31 -16 -65 -29 -74 -29 -9 0 -26 -11 -36 -24 -10 -13 -31 -27 -45 -30
-15 -4 -43 -18 -63 -32 -19 -13 -41 -24 -48 -24 -6 0 -24 -10 -40 -23 -15 -13
-35 -26 -43 -29 -8 -3 -52 -30 -97 -59 -46 -30 -100 -65 -120 -78 -21 -13 -52
-24 -69 -25 l-31 0 -49 33 -49 32 -32 -5 -33 -5 0 19 c0 10 17 36 38 58 l39
40 41 11 c22 6 60 23 84 36 24 14 53 25 65 25 l22 0 11 19 10 19 32 7 c18 4
42 15 53 25 11 10 37 22 58 25 l37 7 19 24 c10 13 26 24 35 24 9 0 37 11 63
25 27 14 67 30 91 36 l43 10 11 24 11 24 27 -5 27 -6 41 21 c23 12 53 21 67
21 14 0 33 4 43 10 47 26 106 49 113 44 12 -7 99 34 99 47 l0 11 15 -12 15
-12 42 6 c24 3 79 2 123 -3 l80 -10 23 21 22 21 0 32 c0 18 7 52 15 75 8 23
15 55 15 70 l0 28 -31 24 c-17 13 -40 32 -52 44 -12 12 -38 29 -57 39 -19 10
-39 24 -43 31 -4 8 -11 13 -15 13 -4 -1 -18 -4 -32 -6z"/>
<path d="M7037 6470 l-14 -20 -17 6 -16 6 0 -18 c-1 -11 -14 -34 -30 -53 l-28
-33 -11 6 c-14 9 -13 4 3 -64 18 -74 32 -107 54 -131 l19 -20 54 -5 c64 -6
172 -31 214 -49 17 -7 44 -11 62 -8 l32 5 23 -16 c12 -9 36 -16 53 -16 16 0
43 -7 59 -15 16 -9 46 -20 65 -25 20 -5 56 -14 81 -21 39 -10 113 -44 240
-110 19 -10 68 -34 109 -54 l75 -35 36 0 36 0 34 -25 c19 -14 42 -25 53 -25
10 0 30 -9 45 -20 l25 -20 32 2 33 2 25 -17 c15 -9 31 -17 36 -17 18 0 111
-63 111 -75 0 -7 9 -20 20 -30 11 -10 20 -29 20 -42 0 -26 34 -109 55 -133
l13 -15 3 -149 3 -150 23 -20 c13 -11 23 -25 23 -32 0 -6 9 -22 19 -35 l20
-24 20 20 c27 26 50 108 61 210 5 44 13 100 19 125 20 93 15 208 -17 347 l-10
42 -34 40 c-19 22 -62 59 -97 83 -35 24 -69 48 -77 53 l-15 10 -9 -15 c-5 -8
-11 -19 -13 -24 l-3 -9 -18 10 c-10 5 -23 20 -29 34 l-12 24 -41 15 c-23 8
-63 32 -90 53 l-49 38 -17 -20 c-23 -30 -42 -26 -101 18 -69 52 -115 74 -139
68 l-20 -6 -41 22 c-23 11 -56 33 -73 47 l-31 27 -42 7 c-23 3 -67 20 -98 36
-31 17 -62 30 -70 30 -19 0 -113 49 -113 59 0 4 -29 15 -64 24 -75 18 -212 82
-220 103 -7 18 -39 18 -77 -1 l-30 -16 -26 21 c-14 11 -34 20 -44 20 -10 0
-21 5 -24 10 -10 16 -33 11 -48 -10z"/>
<path d="M8818 6157 c4 -13 23 -43 43 -67 l37 -43 7 22 6 21 -25 33 c-15 17
-31 38 -37 45 -5 6 -16 12 -24 12 l-13 0 6 -23z"/>
<path d="M6250 5953 c-25 -2 -49 -8 -54 -14 l-10 -9 97 0 97 0 0 10 c0 6 -6
10 -14 10 -7 0 -26 2 -42 4 -16 2 -49 1 -74 -1z"/>
<path d="M6456 5912 c-8 -13 70 -44 101 -40 l28 3 -42 23 c-43 23 -78 28 -87
14z"/>
<path d="M5849 4734 l-13 -16 12 -18 11 -18 -14 -12 c-16 -13 -20 -40 -7 -40
5 0 14 -11 20 -25 l12 -25 18 0 c10 0 23 -5 28 -10 6 -6 30 -14 55 -18 l44 -7
3 -23 c4 -29 20 -28 54 5 l27 26 16 -13 c8 -7 15 -20 15 -30 l0 -18 50 -38
c27 -21 53 -46 56 -56 3 -10 11 -18 18 -18 7 0 32 -15 56 -32 109 -82 147
-108 175 -122 17 -8 41 -26 55 -41 14 -15 40 -34 59 -42 l34 -14 101 0 c56 0
114 5 130 10 15 6 40 11 55 11 l27 0 70 46 c38 25 79 56 91 68 53 52 73 67 83
61 l10 -6 70 73 c64 66 109 132 98 143 -16 16 -238 3 -407 -24 l-116 -19 -59
9 c-33 6 -66 7 -73 5 -16 -7 -93 23 -93 35 l0 9 94 0 c51 0 122 3 157 6 l64 5
-25 -15 c-14 -8 -20 -15 -13 -16 6 0 18 -3 27 -6 l16 -6 0 14 0 13 65 13 c35
6 78 12 94 12 15 0 34 7 41 15 14 17 41 20 56 5 l10 -10 55 11 c30 7 80 13
111 15 l57 3 6 -10 c9 -13 53 -11 57 3 l4 12 37 -1 36 -1 12 14 c6 8 20 14 30
14 l19 0 0 15 0 15 -19 0 c-11 0 -23 4 -26 10 l-6 9 46 12 c25 6 45 15 45 21
0 20 -35 19 -113 -5 l-82 -26 -47 1 c-26 1 -53 -4 -60 -9 -7 -6 -34 -14 -61
-18 -26 -4 -50 -11 -53 -16 -3 -5 -60 -9 -127 -9 -67 0 -176 -5 -242 -10
l-120 -10 -240 11 -240 11 -75 15 c-41 9 -85 22 -97 29 -12 8 -40 14 -61 14
-40 0 -83 11 -139 36 -40 18 -48 18 -64 -2z m465 -175 c61 -5 143 -6 182 -3
l71 7 19 -12 19 -12 -62 5 -61 6 -4 -10 -3 -10 -130 10 c-71 5 -147 12 -167
16 l-38 6 6 10 6 10 26 -7 c14 -3 76 -11 136 -16z"/>
<path d="M8709 4718 c-8 -7 -28 -32 -43 -55 l-28 -42 -7 -60 c-4 -32 -12 -65
-17 -73 -6 -7 -16 -33 -23 -58 -7 -25 -25 -63 -40 -85 -16 -22 -39 -62 -51
-90 l-23 -50 -2 -91 c-2 -50 -8 -101 -14 -112 -13 -24 -15 -72 -3 -72 12 0 42
34 42 48 0 7 9 21 20 32 l20 20 -10 43 c-5 23 -10 48 -10 56 l0 14 23 -21 c13
-12 29 -22 35 -22 l12 0 0 -25 c0 -14 9 -34 20 -45 l20 -20 29 0 c16 0 31 -5
33 -12 l4 -12 15 7 c8 4 22 13 32 19 l18 13 9 -15 c5 -8 10 -25 10 -36 l0 -22
-22 -5 -21 -6 12 -15 c15 -17 31 -12 31 9 0 7 9 16 19 20 28 9 31 31 31 253
l0 202 -9 0 c-4 0 -12 -37 -16 -82 l-8 -83 -8 28 c-4 15 -11 56 -14 91 l-7 63
21 6 21 5 0 64 c0 84 -11 169 -20 163 -5 -3 -11 -43 -15 -90 -4 -47 -10 -85
-14 -85 -8 0 -5 170 4 191 l6 16 -16 17 c-20 19 -27 20 -46 4z"/>
<path d="M7691 4682 c-50 -34 -15 -62 42 -34 23 11 50 23 60 26 9 3 17 10 17
16 l0 10 -49 -2 c-27 -1 -58 -9 -70 -16z"/>
<path d="M4835 4624 c-8 -20 -15 -52 -15 -71 0 -19 -6 -46 -14 -61 l-13 -27
-8 -120 c-10 -162 -7 -234 22 -415 l5 -35 11 23 10 22 21 -7 c12 -3 30 -5 41
-4 11 1 31 3 45 4 l25 2 -3 -32 -3 -33 24 -11 25 -11 -1 -35 -1 -35 27 -20
c15 -11 27 -26 27 -34 l0 -14 19 0 19 0 5 20 c8 32 31 23 49 -20 l16 -40 35
-16 34 -16 27 -60 28 -60 16 16 16 16 -12 12 c-14 14 -16 64 -3 72 5 4 12 -7
16 -24 l6 -29 28 5 28 6 16 -35 c10 -19 17 -39 17 -45 0 -5 7 -13 16 -16 l16
-6 -6 -24 -6 -24 15 -12 c8 -7 15 -18 15 -25 0 -19 45 -45 78 -45 16 0 35 -7
42 -15 18 -22 28 -19 61 16 l29 31 0 40 c0 21 5 48 11 59 l10 20 -11 15 c-18
21 -31 7 -28 -29 l3 -32 -35 3 c-45 4 -52 11 -54 64 l-1 43 -30 -2 -31 -3 -12
32 -12 31 -19 -17 c-27 -25 -47 -15 -55 28 -7 37 -15 43 -32 26 l-11 -11 -18
48 c-22 59 -32 73 -55 73 -22 0 -30 19 -30 73 0 23 -4 49 -10 57 -10 16 -12
15 -28 -15 l-10 -19 -7 39 c-11 64 -15 75 -31 75 l-14 0 0 -41 0 -40 -10 6
-10 6 6 55 7 54 -27 25 c-14 13 -26 33 -26 44 0 11 -14 36 -31 55 l-30 35 2
43 c2 24 2 67 1 95 l-2 53 -22 -3 -23 -2 -3 63 -3 64 -30 16 -29 17 -7 38 -6
38 -32 25 c-41 31 -42 31 -60 -12z"/>
<path d="M8336 3862 c-10 -17 7 -81 25 -98 l19 -17 0 21 c0 11 -4 24 -10 27
-5 3 -10 22 -10 41 0 32 -12 45 -24 26z"/>
<path d="M8209 3747 c-8 -7 -23 -22 -33 -34 l-18 -21 17 -26 c34 -51 65 -29
65 44 0 43 -10 55 -31 37z"/>
<path d="M6548 3709 c-10 -5 -18 -20 -18 -32 0 -12 -7 -35 -15 -51 -8 -15 -15
-40 -15 -55 0 -32 -25 -71 -46 -71 -8 0 -14 -8 -14 -18 l0 -17 -39 -17 -38
-17 -6 -52 c-4 -29 -5 -55 -2 -57 8 -8 25 10 25 27 0 10 7 24 15 31 l16 13 24
-11 24 -11 6 -38 c3 -21 8 -49 11 -62 l5 -24 12 12 c6 6 12 27 13 46 1 41 11
56 24 35 5 -8 12 -11 17 -7 4 5 -2 16 -14 25 -21 17 -35 48 -39 87 -2 11 -4
29 -6 40 l-3 20 23 3 23 4 6 -21 c7 -29 16 -26 31 8 l13 30 -13 20 -12 20 12
59 c19 93 17 103 -20 81z"/>
<path d="M6890 3691 c0 -10 7 -32 15 -47 8 -16 15 -37 15 -46 0 -48 24 -63 35
-20 l7 27 10 -20 c5 -11 22 -28 38 -37 l30 -17 0 -26 c0 -29 7 -31 31 -9 l18
17 62 -67 62 -66 23 0 c29 0 38 14 19 30 -8 7 -15 21 -15 31 l0 19 -14 0 c-19
0 -60 69 -58 97 l2 22 -20 11 -20 11 0 23 c0 13 -9 31 -20 41 l-19 17 -16 -5
-15 -6 0 -24 0 -25 22 -14 21 -14 -7 -12 c-11 -19 -34 -14 -46 9 -19 34 -51
61 -65 55 -15 -6 -39 13 -55 45 -6 10 -17 19 -25 19 l-15 0 0 -19z"/>
<path d="M6420 3617 c0 -1 -9 -27 -20 -57 -11 -30 -20 -56 -20 -57 0 -2 13 -3
28 -3 l29 0 16 18 c22 24 21 65 -1 85 -16 15 -32 22 -32 14z"/>
<path d="M6714 3575 l-6 -25 -15 0 -15 0 6 -16 c3 -9 6 -20 6 -25 0 -18 18 1
39 41 25 48 25 50 6 50 l-15 0 -6 -25z"/>
<path d="M8060 3585 l-13 -16 -15 6 c-33 13 -45 -81 -17 -135 24 -47 34 -35
78 94 22 62 1 93 -33 51z"/>
<path d="M7260 3526 c0 -20 48 -56 76 -56 12 0 26 -5 29 -11 l7 -10 27 6 28 6
13 -17 c8 -9 42 -29 77 -46 34 -16 67 -36 72 -45 l9 -16 16 6 c18 7 21 39 5
68 l-11 21 -49 -7 -49 -7 0 14 c0 7 -20 24 -45 37 -25 13 -45 28 -45 32 0 5
-4 9 -10 9 -5 0 -10 -7 -10 -15 l0 -15 -20 0 -20 0 0 15 c0 17 -50 45 -80 45
l-20 0 0 -14z"/>
<path d="M6080 3485 c-5 -14 -14 -25 -20 -25 -5 0 -10 -10 -10 -22 0 -13 -4
-29 -9 -37 l-9 -14 -11 21 c-6 11 -11 36 -11 54 l0 33 -9 -14 -9 -14 -70 -5
-70 -5 -11 -24 -12 -25 -20 5 c-11 3 -36 -1 -55 -9 l-34 -14 1 -33 c0 -17 4
-40 8 -50 l7 -19 11 25 11 24 38 6 38 6 12 -10 12 -10 6 17 c3 8 6 31 6 49 0
19 5 37 11 41 l11 6 21 -21 21 -21 -13 -32 c-19 -46 -25 -103 -12 -125 l10
-18 13 33 12 32 28 0 c15 0 30 -4 33 -10 3 -5 20 -10 37 -10 l31 0 12 -17 12
-16 41 33 c23 18 39 37 36 42 -3 4 -2 18 1 29 l7 22 9 -14 c5 -8 9 -24 9 -36
0 -12 6 -26 14 -30 8 -5 19 -19 25 -33 l10 -25 -3 61 c-2 33 -9 70 -15 82
l-12 23 -20 -6 -19 -6 0 12 c0 7 5 27 12 46 14 39 6 50 -27 35 l-25 -12 0 -26
0 -26 -12 4 -13 5 -3 46 c-3 52 -17 61 -32 22z"/>
<path d="M7916 3434 c-3 -9 -6 -29 -6 -45 l0 -29 14 0 c20 0 28 32 17 64 -12
30 -17 32 -25 10z"/>
<path d="M2937 6823 c-10 -60 -7 -106 8 -133 l14 -25 1 -85 c0 -47 9 -146 20
-220 11 -74 20 -136 20 -138 0 -2 5 0 10 3 l10 6 0 142 0 142 -15 80 c-8 44
-22 97 -30 118 -8 20 -15 56 -15 80 0 23 -4 48 -9 55 l-8 14 -6 -39z"/>
<path d="M4131 3598 c-5 -13 -14 -93 -20 -178 -6 -85 -16 -186 -22 -225 -5
-38 -14 -166 -19 -285 -6 -118 -15 -237 -20 -263 -6 -26 -10 -67 -10 -90 0
-24 -5 -48 -12 -55 l-11 -11 -1 -95 c-1 -52 -4 -98 -8 -102 -5 -4 -8 -19 -8
-33 0 -14 -8 -47 -17 -74 l-17 -47 12 -33 c7 -18 12 -42 12 -52 0 -10 3 -15 7
-11 4 4 6 22 5 39 l-3 33 25 37 c14 21 26 49 26 63 l0 25 15 5 15 6 0 29 c0
16 4 29 10 29 5 0 12 11 16 24 3 14 12 27 21 30 l14 6 -6 19 -6 20 45 42 44
42 -11 18 -11 17 13 15 12 15 -11 7 -10 6 3 53 3 52 17 24 c9 14 17 34 17 45
l0 21 30 22 c17 13 30 29 30 36 0 8 -13 26 -30 39 -35 30 -39 52 -10 60 l20 5
0 19 c0 10 -6 27 -14 38 l-13 20 3 60 c3 33 7 84 10 113 l6 52 -21 0 -21 0 0
13 c0 7 5 18 10 23 l11 11 -10 44 c-6 24 -11 67 -11 95 l0 50 -30 29 -30 29
-6 48 c-7 52 -19 61 -33 26z"/>
<path d="M3445 2641 c-101 -21 -190 -64 -365 -176 -89 -57 -270 -143 -375
-180 -27 -9 -57 -20 -65 -24 -8 -4 -49 -18 -90 -31 -41 -12 -79 -26 -85 -30
-5 -4 -23 -10 -40 -14 -16 -4 -59 -18 -95 -31 -36 -12 -119 -40 -185 -60 -66
-20 -127 -40 -135 -44 -9 -5 -31 -12 -50 -16 -19 -4 -41 -11 -50 -15 -15 -8
-124 -45 -235 -79 -78 -24 -312 -105 -395 -137 -97 -37 -171 -65 -205 -79 -29
-11 -70 -26 -130 -47 -16 -6 -57 -24 -89 -39 -32 -16 -66 -29 -75 -29 -9 0
-38 -11 -66 -25 -27 -13 -95 -42 -150 -65 -226 -92 -362 -154 -472 -213 l-93
-51 0 -38 c0 -40 9 -47 32 -25 17 17 77 47 95 47 7 0 16 7 19 15 4 8 14 15 23
15 9 0 25 6 36 13 11 7 39 19 62 25 23 7 78 30 122 52 45 22 85 40 91 40 6 0
18 4 28 9 40 20 94 41 106 41 8 0 19 7 26 15 7 8 21 15 30 15 10 0 31 6 47 14
38 19 89 40 143 61 25 9 58 23 73 31 16 8 38 14 50 14 11 0 28 6 36 13 9 8 45
24 81 37 36 13 70 26 75 30 6 4 37 15 70 25 33 10 65 22 70 26 6 4 44 19 85
33 41 13 111 38 155 54 44 17 94 35 110 40 17 6 66 22 110 37 44 14 100 31
125 36 25 5 79 22 120 38 41 16 95 35 120 42 25 7 54 17 65 24 11 7 37 15 58
18 21 3 63 17 94 31 30 14 66 26 80 26 13 0 50 13 81 28 32 16 76 32 98 35 23
4 67 18 98 32 31 14 61 25 67 25 6 0 34 11 62 24 29 13 63 27 77 31 14 4 62
30 108 59 45 28 90 56 100 61 9 6 44 30 77 55 34 25 79 54 100 65 22 11 42 23
45 27 9 11 91 37 140 43 25 4 61 13 80 20 19 7 48 16 63 20 l28 6 -6 9 c-9 15
-120 10 -210 -9z"/>
<path d="M10630 1626 c9 -19 45 -57 79 -86 33 -28 61 -57 61 -66 0 -8 11 -19
26 -24 l25 -10 10 -30 11 -30 23 -6 c24 -6 55 -43 55 -65 0 -13 107 -119 121
-119 5 0 17 -17 28 -38 25 -49 74 -102 95 -102 l16 0 0 23 c0 13 -9 32 -20 42
-11 10 -36 51 -55 91 -19 40 -41 79 -48 86 -7 7 -18 20 -23 29 -10 18 -151
139 -162 139 -4 0 -29 21 -56 45 -27 25 -54 45 -61 45 -6 0 -21 14 -34 30 -18
25 -90 80 -105 80 -2 0 4 -15 14 -34z"/>
<path d="M6424 295 c3 -55 6 -144 6 -197 l0 -98 27 0 26 0 -7 132 c-7 154 -20
226 -42 248 l-16 15 6 -100z"/>
</g>
</svg>
